<svg width="25" height="24" viewBox="0 0 25 24" fill="none" xmlns="http://www.w3.org/2000/svg">
<path d="M10.9745 19.3333C10.9745 19.663 10.8751 19.9852 10.6889 20.2593C10.5027 20.5334 10.238 20.747 9.92825 20.8731C9.61854 20.9993 9.27775 21.0323 8.94897 20.968C8.62019 20.9037 8.31819 20.7449 8.08115 20.5118C7.84412 20.2788 7.68269 19.9818 7.61729 19.6585C7.55189 19.3352 7.58546 19.0001 7.71374 18.6955C7.84203 18.391 8.05927 18.1307 8.33799 17.9476C8.61672 17.7644 8.94441 17.6667 9.27963 17.6667C9.72915 17.6667 10.1603 17.8423 10.4781 18.1548C10.796 18.4674 10.9745 18.8913 10.9745 19.3333ZM18.0932 17.6667C17.7579 17.6667 17.4302 17.7644 17.1515 17.9476C16.8728 18.1307 16.6556 18.391 16.5273 18.6955C16.399 19.0001 16.3654 19.3352 16.4308 19.6585C16.4962 19.9818 16.6576 20.2788 16.8947 20.5118C17.1317 20.7449 17.4337 20.9037 17.7625 20.968C18.0913 21.0323 18.4321 20.9993 18.7418 20.8731C19.0515 20.747 19.3162 20.5334 19.5024 20.2593C19.6887 19.9852 19.7881 19.663 19.7881 19.3333C19.7881 18.8913 19.6095 18.4674 19.2916 18.1548C18.9738 17.8423 18.5427 17.6667 18.0932 17.6667ZM22.455 7.6275L20.1423 15.0192C19.9946 15.4972 19.6942 15.9156 19.2855 16.2124C18.8768 16.5092 18.3817 16.6685 17.8737 16.6667H9.52794C9.01261 16.665 8.51169 16.4992 8.10025 16.1941C7.68881 15.889 7.389 15.4609 7.24574 14.9742L4.3483 5H3.51695C3.24723 5 2.98857 4.89464 2.79786 4.70711C2.60714 4.51957 2.5 4.26522 2.5 4C2.5 3.73478 2.60714 3.48043 2.79786 3.29289C2.98857 3.10536 3.24723 3 3.51695 3H4.60338C4.97147 3.00112 5.32926 3.11957 5.62309 3.33758C5.91692 3.55559 6.13093 3.86142 6.23304 4.20917L6.85083 6.33333H21.483C21.6421 6.33332 21.7991 6.37004 21.9412 6.44054C22.0832 6.51104 22.2065 6.61335 22.3011 6.73923C22.3956 6.86512 22.4588 7.01108 22.4855 7.16535C22.5123 7.31963 22.5018 7.47792 22.455 7.6275ZM20.1059 8.33333H7.43134L9.20167 14.425C9.22194 14.4947 9.26475 14.556 9.32363 14.5996C9.3825 14.6432 9.45423 14.6667 9.52794 14.6667H17.8737C17.9462 14.6668 18.0169 14.6441 18.0753 14.6018C18.1338 14.5595 18.1768 14.4998 18.1982 14.4317L20.1059 8.33333Z" fill="#001A34"/>
</svg>
