<svg width="25" height="24" viewBox="0 0 25 24" fill="none" xmlns="http://www.w3.org/2000/svg">
<path d="M22.0161 6.68874C21.7058 5.9669 21.2584 5.31277 20.6988 4.76298C20.1389 4.21154 19.4787 3.77332 18.7542 3.47215C18.0029 3.15862 17.1971 2.99814 16.3835 3.00002C15.2422 3.00002 14.1286 3.314 13.1609 3.90708C12.9294 4.04895 12.7095 4.20478 12.5011 4.37457C12.2928 4.20478 12.0729 4.04895 11.8413 3.90708C10.8736 3.314 9.76009 3.00002 8.61876 3.00002C7.7969 3.00002 7.00051 3.15817 6.24811 3.47215C5.52118 3.77451 4.86601 4.20943 4.30345 4.76298C3.74319 5.31215 3.29564 5.96643 2.98617 6.68874C2.66437 7.43998 2.5 8.23773 2.5 9.05874C2.5 9.83323 2.65743 10.6403 2.96996 11.4613C3.23157 12.1474 3.60661 12.8591 4.08583 13.5778C4.84518 14.7151 5.88928 15.9013 7.18572 17.1037C9.33412 19.0969 11.4617 20.4738 11.552 20.5296L12.1006 20.8831C12.3437 21.039 12.6563 21.039 12.8993 20.8831L13.448 20.5296C13.5383 20.4715 15.6635 19.0969 17.8143 17.1037C19.1107 15.9013 20.1548 14.7151 20.9141 13.5778C21.3934 12.8591 21.7707 12.1474 22.03 11.4613C22.3425 10.6403 22.5 9.83323 22.5 9.05874C22.5023 8.23773 22.3379 7.43998 22.0161 6.68874ZM12.5011 19.0434C12.5011 19.0434 4.25946 13.7383 4.25946 9.05874C4.25946 6.68874 6.21107 4.76763 8.61876 4.76763C10.3111 4.76763 11.7788 5.71656 12.5011 7.10274C13.2234 5.71656 14.6912 4.76763 16.3835 4.76763C18.7912 4.76763 20.7428 6.68874 20.7428 9.05874C20.7428 13.7383 12.5011 19.0434 12.5011 19.0434Z" fill="#001A34"/>
</svg>
