<svg width="102" height="108" viewBox="0 0 102 108" fill="none" xmlns="http://www.w3.org/2000/svg">
<path d="M43.715 62.6782C44.3315 60.9238 41.3789 69.1109 53.2114 67.9413L26.8665 108L43.715 62.6782Z" fill="#D31459"/>
<path fill-rule="evenodd" clip-rule="evenodd" d="M85.2013 91.3866C58.4852 103.166 29.3171 93.6722 16.7573 83.4383C2.0531 72.912 -10.0174 46.8884 17.3835 33.1463C33.1393 25.2445 57.1153 25.9481 76.296 44.9253C83.1463 53.4323 85.2012 62.5937 76.296 73.0638C98.2169 64.5568 90.6816 35.1095 55.7452 24.6393C45.4698 21.5599 35.1944 20.0586 16.6986 23.985C42.0447 8.27961 83.1463 22.6761 96.8469 44.2708C107.122 62.5936 98.9553 85.3868 65.3356 86.1515C36.5644 86.8058 7.56717 61.8009 25.604 42.962C-8.64736 59.9761 35.8794 105.129 85.2013 91.3866ZM66.0775 70.8653C38.8136 79.9295 16.7573 47.4734 48.0037 44.5494C67.3029 44.5494 67.3029 56.5377 64.2395 62.0932C78.0247 53.3213 57.8065 38.7014 39.7326 41.9178C52.2924 36.9471 63.3205 42.616 67.3029 45.719C82.3134 57.4149 68.5283 68.2336 59.3382 68.2336C53.2114 69.1108 32.9932 62.0933 43.715 49.2278C26.8664 58.5845 48.0037 73.4968 66.0775 70.8653Z" fill="#005BFF"/>
<path d="M16.7573 83.4383L16.9152 83.2445L16.9092 83.2396L16.9028 83.235L16.7573 83.4383ZM85.2013 91.3866L85.3021 91.6154L85.1342 91.1458L85.2013 91.3866ZM17.3835 33.1463L17.4956 33.3698L17.4956 33.3698L17.3835 33.1463ZM76.296 44.9253L76.4908 44.7685L76.4819 44.7575L76.4719 44.7476L76.296 44.9253ZM76.296 73.0638L76.1056 72.9019L76.3865 73.2969L76.296 73.0638ZM55.7452 24.6393L55.817 24.3999L55.817 24.3999L55.7452 24.6393ZM16.6986 23.985L16.567 23.7724L16.7506 24.2295L16.6986 23.985ZM96.8469 44.2708L97.0652 44.1484L97.058 44.1369L96.8469 44.2708ZM65.3356 86.1515L65.3413 86.4014L65.3413 86.4014L65.3356 86.1515ZM25.604 42.962L25.7846 43.1349L25.4928 42.7381L25.604 42.962ZM48.0037 44.5494V44.2994H47.992L47.9804 44.3005L48.0037 44.5494ZM66.0775 70.8653L66.1564 71.1025L66.0415 70.6179L66.0775 70.8653ZM64.2395 62.0932L64.0206 61.9725L64.3738 62.3042L64.2395 62.0932ZM39.7326 41.9178L39.6406 41.6854L39.7764 42.164L39.7326 41.9178ZM67.3029 45.719L67.1493 45.9162L67.1493 45.9162L67.3029 45.719ZM59.3382 68.2336V67.9836H59.3203L59.3027 67.9861L59.3382 68.2336ZM43.715 49.2278L43.907 49.3878L43.5936 49.0092L43.715 49.2278ZM16.5994 83.6321C22.9171 88.7799 33.3901 93.7269 45.6267 95.9134C57.8668 98.1005 71.8899 97.5288 85.3021 91.6154L85.1004 91.1579C71.7966 97.0234 57.8776 97.5945 45.7147 95.4212C33.5483 93.2473 23.1573 88.3306 16.9152 83.2445L16.5994 83.6321ZM17.2714 32.9229C10.3862 36.376 5.96031 40.6111 3.439 45.2013C0.917203 49.7924 0.311523 54.7192 1.03375 59.5353C2.47642 69.1557 9.21743 78.3482 16.6118 83.6416L16.9028 83.235C9.59297 78.0021 2.94662 68.9197 1.52822 59.4612C0.819901 54.7378 1.41525 49.9242 3.87724 45.442C6.33972 40.9589 10.6804 36.7878 17.4956 33.3698L17.2714 32.9229ZM76.4719 44.7476C57.2125 25.6926 33.1201 24.9745 17.2714 32.9229L17.4956 33.3698C33.1585 25.5145 57.018 26.2036 76.1202 45.103L76.4719 44.7476ZM76.4865 73.2258C80.9698 67.9546 82.7152 62.986 82.454 58.2446C82.1931 53.51 79.9335 49.0438 76.4908 44.7685L76.1013 45.0821C79.5089 49.3138 81.7018 53.6818 81.9547 58.2721C82.2072 62.8557 80.5275 67.7029 76.1056 72.9019L76.4865 73.2258ZM55.6734 24.8788C73.0911 30.0988 83.6309 40.035 87.1069 49.6726C88.8442 54.4893 88.8173 59.2272 87.0173 63.2795C85.2179 67.3305 81.6344 70.724 76.2056 72.8308L76.3865 73.2969C81.9182 71.1502 85.613 67.6727 87.4742 63.4825C89.3349 59.2936 89.3508 54.4202 87.5773 49.503C84.0317 39.6726 73.3357 29.6501 55.817 24.3999L55.6734 24.8788ZM16.7506 24.2295C35.2044 20.312 45.4373 21.8111 55.6734 24.8788L55.817 24.3999C45.5023 21.3086 35.1844 19.8051 16.6467 23.7404L16.7506 24.2295ZM97.058 44.1369C90.1657 33.2734 76.4049 24.2468 61.2086 19.9C46.011 15.5529 29.3198 15.8703 16.567 23.7724L16.8303 24.1975C29.4235 16.3942 45.9562 16.0573 61.071 20.3807C76.1872 24.7045 89.8274 33.6735 96.6358 44.4048L97.058 44.1369ZM65.3413 86.4014C82.2041 86.0179 92.7463 80.1063 97.765 71.9262C102.782 63.7483 102.237 53.3706 97.0649 44.1485L96.6288 44.3931C101.732 53.4938 102.241 63.6741 97.3388 71.6647C92.4379 79.653 82.0868 85.5204 65.3299 85.9015L65.3413 86.4014ZM25.4234 42.7891C20.8674 47.5477 19.2668 52.7161 19.9088 57.7815C20.5495 62.8366 23.4193 67.7564 27.7407 72.0442C36.3813 80.6176 50.8896 86.7301 65.3413 86.4014L65.3299 85.9015C51.0104 86.2272 36.6345 80.1644 28.0929 71.6892C23.8232 67.4527 21.0273 62.6299 20.4048 57.7186C19.7836 52.8175 21.3222 47.7958 25.7846 43.1349L25.4234 42.7891ZM85.1342 91.1458C60.5584 97.9931 37.184 90.1639 24.2298 78.5219C17.7501 72.6986 13.9069 65.9493 13.7803 59.6336C13.6543 53.3422 17.2165 47.4076 25.7152 43.1859L25.4928 42.7381C16.8658 47.0235 13.1496 53.1132 13.2804 59.6436C13.4108 66.1499 17.3597 73.0199 23.8956 78.8938C36.9724 90.646 60.5222 98.5222 85.2684 91.6275L85.1342 91.1458ZM47.9804 44.3005C40.135 45.0346 35.5544 47.6293 33.5948 51.0451C31.6304 54.4692 32.3521 58.623 34.8928 62.3439C39.9725 69.7833 52.4193 75.6696 66.1564 71.1025L65.9986 70.628C52.4718 75.1252 40.2585 69.3155 35.3057 62.0619C32.8301 58.4363 32.1924 54.4944 34.0285 51.2939C35.8694 48.085 40.2491 45.5261 48.027 44.7983L47.9804 44.3005ZM64.4585 62.214C66.0185 59.3848 66.809 54.9052 64.7267 51.1175C62.635 47.3129 57.699 44.2994 48.0037 44.2994V44.7994C57.6076 44.7994 62.3212 47.78 64.2885 51.3584C66.2652 54.9539 65.524 59.2461 64.0206 61.9725L64.4585 62.214ZM39.7764 42.164C48.7427 40.5683 58.2442 43.4008 63.7797 47.7072C66.5498 49.8623 68.2886 52.3557 68.5187 54.8112C68.7465 57.2427 67.5005 59.7219 64.1053 61.8823L64.3738 62.3042C67.8712 60.0787 69.2673 57.4409 69.0165 54.7646C68.768 52.1122 66.9073 49.5069 64.0867 47.3126C58.4409 42.9203 48.7963 40.0509 39.6888 41.6717L39.7764 42.164ZM67.4566 45.5218C63.4365 42.3894 52.3147 36.6694 39.6406 41.6854L39.8246 42.1503C52.2701 37.2248 63.2045 42.8425 67.1493 45.9162L67.4566 45.5218ZM59.3382 68.4836C61.6812 68.4836 64.3046 67.7951 66.684 66.5832C69.0635 65.3713 71.2166 63.627 72.6051 61.4989C73.9968 59.3661 74.6203 56.8462 73.9257 54.1096C73.2327 51.3793 71.2362 48.4668 67.4566 45.5218L67.1493 45.9162C70.8749 48.8191 72.7842 51.6449 73.441 54.2326C74.0962 56.814 73.5135 59.1917 72.1864 61.2256C70.8562 63.2642 68.778 64.9556 66.4571 66.1377C64.1362 67.3198 61.5901 67.9836 59.3382 67.9836V68.4836ZM43.5229 49.0677C40.8103 52.3227 40.0237 55.2479 40.526 57.7967C41.0263 60.336 42.7942 62.4403 45.0615 64.0865C47.331 65.7343 50.1262 66.9423 52.7362 67.6837C55.3407 68.4235 57.792 68.7075 59.3736 68.4811L59.3027 67.9861C57.8209 68.1983 55.4474 67.9341 52.8729 67.2027C50.3039 66.473 47.5659 65.287 45.3552 63.6819C43.1423 62.0751 41.4831 60.0677 41.0165 57.7001C40.5519 55.3421 41.2587 52.5656 43.907 49.3878L43.5229 49.0677ZM66.0415 70.6179C57.0722 71.9238 47.3418 68.8716 41.9612 64.3507C39.2694 62.089 37.7084 59.4973 37.8093 56.9359C37.9097 54.3865 39.6624 51.7643 43.8363 49.4463L43.5936 49.0092C39.3432 51.3696 37.4199 54.1202 37.3097 56.9162C37.2 59.7001 38.8938 62.4264 41.6395 64.7335C47.1339 69.35 57.009 72.4382 66.1135 71.1126L66.0415 70.6179Z" fill="#0050E0"/>
<g filter="url(#filter0_d_263_286)">
<path d="M74.6551 8L46.472 54.1988C45.553 57.7076 50.4544 63.2631 58.4192 59.1696L75.8804 8.5848L74.6551 8Z" fill="#D31459"/>
</g>
<defs>
<filter id="filter0_d_263_286" x="38.3618" y="0" width="45.5186" height="68.6133" filterUnits="userSpaceOnUse" color-interpolation-filters="sRGB">
<feFlood flood-opacity="0" result="BackgroundImageFix"/>
<feColorMatrix in="SourceAlpha" type="matrix" values="0 0 0 0 0 0 0 0 0 0 0 0 0 0 0 0 0 0 127 0" result="hardAlpha"/>
<feOffset/>
<feGaussianBlur stdDeviation="4"/>
<feComposite in2="hardAlpha" operator="out"/>
<feColorMatrix type="matrix" values="0 0 0 0 0.827451 0 0 0 0 0.0784314 0 0 0 0 0.34902 0 0 0 0.3 0"/>
<feBlend mode="normal" in2="BackgroundImageFix" result="effect1_dropShadow_263_286"/>
<feBlend mode="normal" in="SourceGraphic" in2="effect1_dropShadow_263_286" result="shape"/>
</filter>
</defs>
</svg>
