<svg width="500" height="373" viewBox="0 0 500 373" fill="none" xmlns="http://www.w3.org/2000/svg">
<path d="M500 327.4H0V327.65H500V327.4Z" fill="#EBEBEB"/>
<path d="M449.9 343.49H428.22V343.74H449.9V343.49Z" fill="#EBEBEB"/>
<path d="M344.67 338.31H310.56V338.56H344.67V338.31Z" fill="#EBEBEB"/>
<path d="M441.12 334.21H396.59V334.46H441.12V334.21Z" fill="#EBEBEB"/>
<path d="M173.02 339.25H161.88V339.5H173.02V339.25Z" fill="#EBEBEB"/>
<path d="M152.97 339.25H114.58V339.5H152.97V339.25Z" fill="#EBEBEB"/>
<path d="M94.01 335.03H66.31V335.28H94.01V335.03Z" fill="#EBEBEB"/>
<path d="M237 282.8H43.91C42.3974 282.797 40.9476 282.195 39.8789 281.124C38.8102 280.054 38.21 278.603 38.21 277.09V5.66C38.2232 4.15603 38.8292 2.71798 39.8965 1.65822C40.9637 0.598458 42.406 0.00257639 43.91 0H237C238.514 0 239.967 0.601588 241.038 1.67242C242.108 2.74325 242.71 4.19561 242.71 5.71V277.09C242.71 278.604 242.108 280.057 241.038 281.128C239.967 282.198 238.514 282.8 237 282.8ZM43.91 0.200001C42.4637 0.20265 41.0775 0.779065 40.0557 1.80273C39.0339 2.82639 38.46 4.21365 38.46 5.66V277.09C38.46 278.536 39.0339 279.924 40.0557 280.947C41.0775 281.971 42.4637 282.547 43.91 282.55H237C238.447 282.547 239.835 281.971 240.858 280.948C241.881 279.924 242.457 278.537 242.46 277.09V5.66C242.457 4.21273 241.881 2.82549 240.858 1.80212C239.835 0.77874 238.447 0.202644 237 0.200001H43.91Z" fill="#EBEBEB"/>
<path d="M453.31 282.8H260.21C258.696 282.797 257.246 282.195 256.175 281.125C255.105 280.054 254.503 278.604 254.5 277.09V5.66C254.516 4.15511 255.124 2.71708 256.193 1.65759C257.262 0.598109 258.705 0.00254829 260.21 0H453.31C454.812 0.0052045 456.252 0.602249 457.317 1.66173C458.382 2.72121 458.987 4.15775 459 5.66V277.09C459 278.601 458.401 280.05 457.335 281.121C456.268 282.191 454.821 282.795 453.31 282.8ZM260.21 0.200001C258.763 0.202644 257.375 0.77874 256.352 1.80212C255.329 2.82549 254.753 4.21273 254.75 5.66V277.09C254.753 278.537 255.329 279.924 256.352 280.948C257.375 281.971 258.763 282.547 260.21 282.55H453.31C454.757 282.547 456.145 281.971 457.168 280.948C458.191 279.924 458.767 278.537 458.77 277.09V5.66C458.767 4.21273 458.191 2.82549 457.168 1.80212C456.145 0.77874 454.757 0.202644 453.31 0.200001H260.21Z" fill="#EBEBEB"/>
<path d="M216.07 145.88L216.52 132.74L208.46 130.1C208.113 125.647 207.391 121.231 206.3 116.9L213.14 111.9L208.5 99.5599L200.04 100.24C198.034 96.2641 195.692 92.467 193.04 88.8899L197.42 81.5799L188.42 71.9699L180.86 75.8399C177.46 72.934 173.828 70.3119 170 67.9999L171.22 59.5999L159.22 54.1599L153.72 60.5999C149.477 59.2426 145.129 58.2392 140.72 57.5999L138.72 49.3699L125.54 48.9199L122.94 56.9899C118.491 57.3397 114.079 58.0588 109.75 59.1399L104.67 52.3399L92.33 56.9499L93.01 65.4099C89.0363 67.4462 85.2397 69.8111 81.66 72.4799L74.3 67.9999L64.65 76.9999L68.52 84.5999C65.6134 87.9824 63.0037 91.6092 60.72 95.4399L52.33 94.1799L46.85 106.18L53.33 111.67C51.9631 115.91 50.9595 120.259 50.33 124.67L42 126.76L41.55 139.9L49.65 142.54C49.985 146.99 50.7044 151.403 51.8 155.73L44.96 160.73L49.61 173.08L58.07 172.4C60.0707 176.379 62.4128 180.176 65.07 183.75L60.68 191.06L69.68 200.67L77.24 196.8C80.6306 199.705 84.2564 202.324 88.08 204.63L86.82 213.02L98.82 218.47L104.35 212.03C108.593 213.399 112.941 214.42 117.35 215.08L119.35 223.31L132.53 223.76L135.13 215.69C139.581 215.336 143.996 214.617 148.33 213.54L153.33 220.34L165.67 215.73L165.03 207.27C168.996 205.221 172.792 202.856 176.38 200.2L183.65 204.58L193.3 195.58L189.43 187.98C192.338 184.598 194.947 180.971 197.23 177.14L205.62 178.4L211.1 166.4L204.62 160.9C206.01 156.663 207.03 152.313 207.67 147.9L216.07 145.88ZM127.28 188.45C116.968 188.102 106.991 184.703 98.6108 178.683C90.2307 172.664 83.8242 164.294 80.2016 154.633C76.579 144.972 75.9031 134.453 78.2594 124.408C80.6157 114.363 85.8983 105.242 93.439 98.1993C100.98 91.1568 110.44 86.5089 120.622 84.8435C130.805 83.1782 141.253 84.5703 150.644 88.8437C160.036 93.1171 167.949 100.08 173.382 108.851C178.816 117.622 181.526 127.808 181.17 138.12C180.695 151.939 174.752 165.005 164.646 174.443C154.54 183.881 141.1 188.919 127.28 188.45Z" fill="#EBEBEB"/>
<path d="M441 102.42L444.31 99.3302L443 96.7202C443.999 95.5507 444.899 94.2997 445.69 92.9802L448.59 93.4102L450.46 89.2702L448.24 87.3802C448.718 85.9165 449.069 84.4143 449.29 82.8902L452.14 82.1802L452.28 77.6402L449.5 76.7402C449.378 75.2026 449.13 73.6775 448.76 72.1802L451.11 70.4302L449.51 66.1802L446.6 66.4102C445.898 65.0395 445.085 63.7285 444.17 62.4902L445.68 59.9902L442.57 56.6702L439.97 58.0002C438.799 57.0032 437.548 56.1035 436.23 55.3102L436.65 52.4102L432.52 50.5202L430.62 52.7502C429.153 52.2936 427.652 51.9591 426.13 51.7502L425.42 48.9102L420.88 48.7402L419.97 51.5402C418.438 51.6573 416.919 51.9049 415.43 52.2802L413.69 49.9302L409.43 51.5202L409.67 54.4402C408.295 55.1351 406.984 55.9482 405.75 56.8702L403.23 55.3602L399.91 58.4502L401.2 61.0002C400.193 62.1664 399.29 63.4177 398.5 64.7402L395.61 64.3102L393.73 68.4502L395.96 70.3502C395.498 71.8118 395.163 73.3108 394.96 74.8302L392.1 75.5402L391.96 80.0802L394.75 80.9802C394.864 82.5182 395.108 84.0436 395.48 85.5402L393.12 87.2802L394.72 91.5302L397.64 91.3102C398.342 92.6809 399.154 93.992 400.07 95.2302L398.56 97.7302L401.67 101.05L404.27 99.7202C405.439 100.72 406.69 101.62 408.01 102.41L407.58 105.3L411.72 107.19L413.62 104.97C415.088 105.422 416.589 105.757 418.11 105.97L418.82 108.81L423.36 108.98L424.27 106.18C425.802 106.064 427.321 105.816 428.81 105.44L430.55 107.79L434.81 106.2L434.58 103.28C435.951 102.584 437.259 101.771 438.49 100.85L441 102.42ZM417.38 83.2902C416.507 82.3545 415.931 81.1808 415.725 79.9176C415.518 78.6544 415.692 77.3584 416.222 76.1937C416.753 75.0289 417.617 74.0477 418.705 73.3742C419.794 72.7007 421.057 72.3651 422.337 72.4098C423.616 72.4546 424.853 72.8778 425.891 73.6258C426.93 74.3738 427.723 75.413 428.171 76.612C428.619 77.811 428.701 79.1159 428.407 80.3616C428.113 81.6073 427.457 82.7379 426.52 83.6102C425.898 84.1963 425.167 84.6533 424.367 84.9547C423.568 85.2561 422.717 85.3959 421.863 85.3662C421.009 85.3364 420.17 85.1376 419.394 84.7813C418.617 84.4249 417.919 83.9181 417.34 83.2902H417.38Z" fill="#EBEBEB"/>
<path d="M320 237.34L309.66 230.19C308.646 226.467 307.252 222.858 305.5 219.42L308.15 209.02L293.15 192.96L282.59 194.89C279.277 192.906 275.768 191.267 272.12 190L265.7 179.19L243.7 178.44L236.56 188.78C232.841 189.793 229.236 191.184 225.8 192.93L215.4 190.28L199.34 205.28L201.27 215.82C199.287 219.14 197.652 222.655 196.39 226.31L185.58 232.73L184.83 254.73L195.18 261.87C196.177 265.614 197.568 269.241 199.33 272.69L196.65 283L211.65 299.06L222.14 297.14C225.478 299.127 229.009 300.769 232.68 302.04L239.09 312.83L261.09 313.59L268.22 303.25C271.972 302.237 275.611 300.843 279.08 299.09L289.42 301.73L305.49 286.73L303.56 276.19C305.549 272.87 307.185 269.351 308.44 265.69L319.25 259.27L320 237.34ZM251.55 270.73C246.666 270.563 241.941 268.952 237.973 266.1C234.005 263.248 230.971 259.284 229.256 254.708C227.541 250.132 227.221 245.15 228.337 240.392C229.453 235.634 231.955 231.315 235.525 227.978C239.096 224.642 243.576 222.44 248.399 221.65C253.221 220.86 258.17 221.517 262.619 223.539C267.068 225.562 270.817 228.857 273.393 233.01C275.969 237.163 277.255 241.986 277.09 246.87C276.861 253.421 274.041 259.612 269.251 264.086C264.46 268.559 258.091 270.949 251.54 270.73H251.55Z" fill="#EBEBEB"/>
<path d="M343.55 175H343.48L326.16 174.41C325.809 174.404 325.466 174.309 325.161 174.134C324.857 173.959 324.602 173.71 324.42 173.41L319.75 165.56C317.233 164.639 314.798 163.509 312.47 162.18L305 163.47C304.652 163.534 304.293 163.508 303.958 163.397C303.622 163.285 303.32 163.09 303.08 162.83L291.25 150.17C291.002 149.908 290.825 149.586 290.738 149.236C290.65 148.885 290.654 148.518 290.75 148.17L292.64 140.76C291.469 138.359 290.512 135.859 289.78 133.29L282.25 128.09C281.958 127.889 281.721 127.618 281.562 127.302C281.403 126.985 281.327 126.634 281.34 126.28L281.93 108.96C281.942 108.61 282.039 108.269 282.213 107.965C282.388 107.662 282.634 107.406 282.93 107.22L290.8 102.55C291.708 100.039 292.835 97.6126 294.17 95.3L292.79 87.77C292.725 87.4204 292.75 87.0602 292.862 86.7228C292.974 86.3854 293.169 86.0817 293.43 85.84L306.09 74.02C306.352 73.7708 306.673 73.593 307.023 73.5037C307.374 73.4144 307.741 73.4166 308.09 73.51L315.53 75.41C317.925 74.2384 320.418 73.2781 322.98 72.54L328.18 65.01C328.373 64.7109 328.643 64.4688 328.961 64.3088C329.279 64.1488 329.635 64.0767 329.99 64.1L347.3 64.7C347.652 64.7074 347.996 64.8028 348.302 64.9775C348.608 65.1522 348.865 65.4005 349.05 65.7L353.72 73.56C356.219 74.4775 358.635 75.6083 360.94 76.94L368.5 75.55C368.848 75.4853 369.207 75.5101 369.543 75.6221C369.878 75.734 370.18 75.9294 370.42 76.19L382.25 88.85C382.497 89.1132 382.672 89.4351 382.759 89.7851C382.847 90.1351 382.844 90.5016 382.75 90.85L380.85 98.28C382.021 100.676 382.985 103.169 383.73 105.73L391.25 110.93C391.542 111.13 391.779 111.402 391.938 111.718C392.097 112.034 392.173 112.386 392.16 112.74L391.57 130.05C391.558 130.401 391.461 130.744 391.287 131.049C391.112 131.354 390.866 131.612 390.57 131.8L382.7 136.47C381.786 138.975 380.659 141.398 379.33 143.71L380.71 151.25C380.775 151.598 380.75 151.957 380.638 152.293C380.526 152.628 380.331 152.93 380.07 153.17L367.33 165C367.068 165.248 366.746 165.425 366.396 165.512C366.045 165.6 365.678 165.596 365.33 165.5L357.93 163.61C355.519 164.776 353.013 165.736 350.44 166.48L345.29 174C345.104 174.297 344.849 174.543 344.545 174.718C344.242 174.892 343.9 174.989 343.55 175ZM327.46 170.23L342.46 170.74L347.46 163.55C347.737 163.13 348.162 162.83 348.65 162.71C351.464 161.94 354.194 160.892 356.8 159.58C357.254 159.361 357.771 159.308 358.26 159.43L365.26 161.22L376.26 150.97L375 143.74C374.903 143.235 374.995 142.711 375.26 142.27C376.745 139.794 377.968 137.17 378.91 134.44C379.069 133.945 379.403 133.525 379.85 133.26L387.38 128.8L387.89 113.8L380.69 108.8C380.311 108.541 380.026 108.165 379.88 107.73C379.88 107.68 379.88 107.62 379.88 107.56C379.11 104.796 378.064 102.116 376.76 99.56C376.529 99.1024 376.472 98.5763 376.6 98.08L378.4 91L368.15 80L360.96 81.32C360.458 81.411 359.94 81.3187 359.5 81.06C357.019 79.5717 354.392 78.342 351.66 77.39C351.503 77.3397 351.352 77.2727 351.21 77.19C350.922 77.0101 350.682 76.763 350.51 76.47L346 68.92L331 68.4L326 75.61C325.702 76.0326 325.262 76.3343 324.76 76.46C321.975 77.221 319.274 78.263 316.7 79.57C316.246 79.8016 315.723 79.8585 315.23 79.73L308.15 77.93L297.15 88.18L298.47 95.35C298.548 95.8022 298.482 96.2677 298.28 96.68L298.18 96.85C296.693 99.3356 295.469 101.97 294.53 104.71C294.364 105.18 294.039 105.576 293.61 105.83L286.08 110.3L285.57 125.3L292.78 130.3C293.191 130.581 293.489 130.999 293.62 131.48C294.37 134.288 295.412 137.01 296.73 139.6C296.801 139.747 296.858 139.902 296.9 140.06C296.975 140.389 296.975 140.731 296.9 141.06L295.1 148.06L305.35 159.06L312.49 157.75C312.989 157.659 313.504 157.751 313.94 158.01C316.44 159.495 319.083 160.725 321.83 161.68C322.325 161.827 322.745 162.16 323 162.61L327.46 170.23ZM336.73 151.26C336.36 151.26 335.99 151.26 335.62 151.26C327.307 151.114 319.388 147.69 313.588 141.734C307.787 135.778 304.573 127.771 304.646 119.457C304.719 111.143 308.073 103.195 313.978 97.3419C319.883 91.4888 327.861 88.2048 336.175 88.2048C344.489 88.2048 352.467 91.4888 358.372 97.3419C364.277 103.195 367.631 111.143 367.704 119.457C367.777 127.771 364.563 135.778 358.762 141.734C352.962 147.69 345.043 151.114 336.73 151.26ZM336.73 92.17C329.466 92.2952 322.545 95.2851 317.474 100.489C312.403 105.692 309.593 112.688 309.656 119.953C309.719 127.219 312.649 134.165 317.808 139.28C322.968 144.396 329.939 147.266 337.205 147.266C344.471 147.266 351.442 144.396 356.602 139.28C361.761 134.165 364.691 127.219 364.754 119.953C364.817 112.688 362.007 105.692 356.936 100.489C351.865 95.2851 344.944 92.2952 337.68 92.17H336.73Z" fill="#EBEBEB"/>
<path d="M383.44 50.3199L376.26 48.3999L374.34 41.2199L377.15 38.4199L380.11 44.5499L386.25 47.5199L383.44 50.3199Z" fill="#E0E0E0"/>
<path d="M383.88 45.5197C384.191 45.2091 384.437 44.8404 384.605 44.4346C384.773 44.0288 384.86 43.5939 384.86 43.1547C384.86 42.7155 384.773 42.2805 384.605 41.8748C384.437 41.469 384.191 41.1003 383.88 40.7897C383.569 40.4791 383.201 40.2327 382.795 40.0647C382.389 39.8966 381.954 39.8101 381.515 39.8101C381.076 39.8101 380.641 39.8966 380.235 40.0647C379.829 40.2327 379.461 40.4791 379.15 40.7897L382.72 35.4297L387.5 37.8497L388.55 42.8497L383.88 45.5197Z" fill="#E0E0E0"/>
<path d="M376.58 39.0002L381.84 33.7402L389 35.6502L390.93 42.8202L385.67 48.0802L378.5 46.1502L376.58 39.0002ZM386.13 43.3002C386.598 42.8316 386.917 42.2347 387.046 41.5849C387.175 40.9352 387.108 40.2618 386.855 39.6499C386.601 39.0379 386.172 38.5149 385.621 38.147C385.07 37.779 384.422 37.5826 383.76 37.5826C383.098 37.5826 382.45 37.779 381.899 38.147C381.348 38.5149 380.919 39.0379 380.665 39.6499C380.412 40.2618 380.345 40.9352 380.474 41.5849C380.603 42.2347 380.922 42.8316 381.39 43.3002C382.024 43.9217 382.877 44.2682 383.764 44.2644C384.652 44.2607 385.502 43.907 386.13 43.2802V43.3002Z" fill="#F0F0F0"/>
<path d="M90.22 241.71L94.07 240.67L95.1 236.82L93.6 235.32L92.01 238.61L88.71 240.2L90.22 241.71Z" fill="#E0E0E0"/>
<path d="M90 239.13C89.6991 238.786 89.5401 238.341 89.5553 237.884C89.5704 237.428 89.7585 236.994 90.0815 236.671C90.4044 236.348 90.8381 236.16 91.2946 236.145C91.7512 236.13 92.1963 236.289 92.54 236.59L90.63 233.72L88 235L87.44 237.7L90 239.13Z" fill="#E0E0E0"/>
<path d="M93.9 235.62L91.08 232.8L87.23 233.8L86.23 237.65L89 240.5L92.85 239.5L93.9 235.62ZM88.78 237.93C88.5946 237.767 88.4445 237.569 88.339 237.346C88.2335 237.123 88.1749 236.881 88.1667 236.635C88.1585 236.389 88.201 236.144 88.2915 235.914C88.3821 235.685 88.5187 235.477 88.6929 235.303C88.8672 235.129 89.0753 234.992 89.3045 234.901C89.5337 234.811 89.779 234.768 90.0253 234.777C90.2716 234.785 90.5136 234.843 90.7363 234.949C90.959 235.054 91.1577 235.204 91.32 235.39C91.6209 235.733 91.7799 236.179 91.7647 236.635C91.7496 237.092 91.5615 237.525 91.2385 237.848C90.9155 238.171 90.4818 238.359 90.0253 238.375C89.5688 238.39 89.1236 238.231 88.78 237.93Z" fill="#F0F0F0"/>
<path d="M76.36 30.6603L79.56 33.8603C79.9602 34.2536 80.4989 34.4739 81.06 34.4739C81.6211 34.4739 82.1598 34.2536 82.56 33.8603C82.9509 33.4588 83.1697 32.9206 83.1697 32.3603C83.1697 31.7999 82.9509 31.2617 82.56 30.8603L79.37 27.6702C78.9685 27.2793 78.4303 27.0605 77.87 27.0605C77.3096 27.0605 76.7714 27.2793 76.37 27.6702C75.9783 28.0687 75.758 28.6045 75.7562 29.1632C75.7543 29.7219 75.971 30.2592 76.36 30.6603Z" fill="#F0F0F0"/>
<path d="M74.11 22.7095C74.945 22.4774 75.8296 22.494 76.6553 22.7576C77.481 23.0211 78.2117 23.5201 78.7578 24.1931C79.3039 24.8662 79.6415 25.684 79.7293 26.5463C79.817 27.4085 79.6511 28.2776 79.2518 29.0469C78.8526 29.8161 78.2373 30.4521 77.4817 30.8766C76.7261 31.3011 75.8629 31.4957 74.9983 31.4365C74.1336 31.3773 73.305 31.0669 72.6142 30.5434C71.9235 30.0199 71.4007 29.306 71.11 28.4895C70.9254 27.9131 70.8567 27.3059 70.9077 26.7028C70.9588 26.0997 71.1286 25.5126 71.4074 24.9754C71.6862 24.4382 72.0686 23.9614 72.5324 23.5725C72.9962 23.1837 73.5324 22.8904 74.11 22.7095Z" fill="#E0E0E0"/>
<path d="M70.6298 27.9548L71.093 29.2441L80.5983 25.8295L80.1351 24.5402L70.6298 27.9548Z" fill="#F0F0F0"/>
<path d="M250 372.56C357.082 372.56 443.89 367.492 443.89 361.24C443.89 354.988 357.082 349.92 250 349.92C142.917 349.92 56.1099 354.988 56.1099 361.24C56.1099 367.492 142.917 372.56 250 372.56Z" fill="#F5F5F5"/>
<path d="M86.7202 65.6503C85.7202 61.2403 86.1602 57.5403 88.0602 54.5203C89.9602 51.5003 93.0602 49.5203 97.4702 48.5203C101.88 47.5203 105.69 47.9203 108.67 49.7803C111.65 51.6403 113.67 54.7803 114.67 59.0803C115.376 61.7343 115.434 64.5191 114.84 67.2003C114.259 69.4271 113.03 71.4315 111.31 72.9603C109.267 74.6805 106.815 75.8447 104.19 76.3403C101.617 77.0234 98.9236 77.1157 96.3102 76.6103C94.0385 76.0582 91.9838 74.8393 90.4102 73.1103C88.5302 71.0017 87.2553 68.4241 86.7202 65.6503ZM95.0602 63.7903C95.6802 66.5103 96.6302 68.3503 97.9102 69.3103C98.5709 69.7509 99.3139 70.0533 100.095 70.1993C100.875 70.3454 101.677 70.3321 102.453 70.1602C103.228 69.9883 103.96 69.6614 104.606 69.1992C105.252 68.7369 105.798 68.1488 106.21 67.4703C106.93 66.0803 106.94 63.8703 106.26 60.8603C105.68 58.3203 104.744 56.5803 103.45 55.6403C102.799 55.173 102.051 54.8576 101.262 54.7174C100.473 54.5772 99.6625 54.6158 98.8902 54.8303C98.1172 54.9751 97.3872 55.2933 96.755 55.7609C96.1227 56.2286 95.6048 56.8336 95.2402 57.5303C94.5002 59.0003 94.4302 61.0003 95.0602 63.7903Z" fill="#263238"/>
<path d="M118.59 62.3503C118.235 60.9875 118.172 59.565 118.404 58.1761C118.637 56.7871 119.16 55.4629 119.94 54.2903C120.814 53.0444 121.926 51.9835 123.212 51.1684C124.497 50.3533 125.93 49.8 127.43 49.5403C131.344 48.6536 134.557 49.1169 137.07 50.9303C139.185 52.5699 140.623 54.9305 141.11 57.5621C141.597 60.1937 141.099 62.9124 139.71 65.2003C138.15 67.5803 135.61 69.1669 132.09 69.9603C129.378 70.7184 126.485 70.4844 123.93 69.3003C122.564 68.6326 121.371 67.6577 120.445 66.4519C119.518 65.2462 118.883 63.8423 118.59 62.3503ZM126.1 60.6203C126.302 62.0177 126.985 63.3011 128.03 64.2503C128.445 64.5639 128.922 64.7835 129.43 64.894C129.938 65.0044 130.464 65.0029 130.971 64.8897C131.478 64.7765 131.954 64.5542 132.367 64.2382C132.78 63.9223 133.119 63.5204 133.36 63.0603C133.884 61.7171 133.933 60.2354 133.5 58.8603C133.29 57.4957 132.615 56.2454 131.59 55.3203C131.192 54.9978 130.726 54.7714 130.226 54.6587C129.727 54.5459 129.208 54.5499 128.71 54.6703C128.191 54.7778 127.704 55.0021 127.284 55.3261C126.865 55.6501 126.525 56.0653 126.29 56.5403C125.752 57.8362 125.684 59.2799 126.1 60.6203Z" fill="#263238"/>
<path d="M148.58 73.5705L142.45 46.5705L149.45 44.9705L150.11 47.8605C150.604 46.7079 151.321 45.6645 152.22 44.7905C153.207 43.953 154.385 43.3725 155.65 43.1005C156.819 42.7824 158.05 42.7642 159.228 43.0473C160.406 43.3305 161.493 43.9059 162.39 44.7205C164.367 46.568 165.707 48.994 166.22 51.6505C166.96 54.9005 166.74 57.5605 165.58 59.6505C165.028 60.6497 164.266 61.517 163.346 62.1922C162.425 62.8674 161.369 63.3342 160.25 63.5605C159.172 63.816 158.055 63.8602 156.96 63.6905C155.91 63.5065 154.909 63.1082 154.02 62.5205L156.14 71.8505L148.58 73.5705ZM152.19 54.7105C152.374 55.9594 152.998 57.1015 153.95 57.9305C154.332 58.2228 154.775 58.425 155.246 58.522C155.717 58.6189 156.204 58.6082 156.67 58.4905C157.103 58.4036 157.51 58.2164 157.857 57.9437C158.205 57.671 158.483 57.3205 158.67 56.9205C159.095 55.6689 159.095 54.312 158.67 53.0605C158.487 51.8052 157.885 50.649 156.96 49.7805C156.617 49.4956 156.214 49.2934 155.78 49.1894C155.347 49.0854 154.895 49.0823 154.46 49.1805C154.001 49.2796 153.57 49.4814 153.199 49.7705C152.829 50.0597 152.528 50.4289 152.32 50.8505C151.831 52.0831 151.785 53.4476 152.19 54.7105Z" fill="#263238"/>
<path d="M169.43 55.3007L176.71 52.9107C177.097 53.6144 177.7 54.1753 178.43 54.5107C179.216 54.7381 180.047 54.7563 180.842 54.5633C181.636 54.3704 182.367 53.973 182.96 53.4107C183.126 53.2342 183.247 53.0199 183.311 52.7865C183.376 52.553 183.382 52.3073 183.33 52.0707C183.27 51.7999 183.13 51.5534 182.929 51.3627C182.728 51.172 182.474 51.0459 182.2 51.0007C181.07 50.8766 179.93 50.8766 178.8 51.0007C176.904 51.162 174.997 51.162 173.1 51.0007C171.99 50.8395 170.949 50.3642 170.1 49.6307C169.195 48.8469 168.569 47.7895 168.318 46.6184C168.068 45.4474 168.205 44.2265 168.71 43.1407C169.293 41.9787 170.2 41.0099 171.32 40.3507C172.915 39.4444 174.648 38.806 176.45 38.4607C178.17 37.9938 179.949 37.7783 181.73 37.8207C182.849 37.8927 183.934 38.2359 184.89 38.8207C185.909 39.5083 186.774 40.4005 187.43 41.4407L180.43 43.7507C180.169 43.2296 179.734 42.816 179.2 42.5807C178.471 42.3197 177.68 42.2849 176.93 42.4807C176.268 42.573 175.654 42.8784 175.18 43.3507C175.03 43.5116 174.921 43.707 174.864 43.9197C174.806 44.1323 174.801 44.3558 174.85 44.5707C174.904 44.8071 175.029 45.0216 175.207 45.1858C175.386 45.3501 175.61 45.4563 175.85 45.4907C176.968 45.6204 178.099 45.5969 179.21 45.4207C181.138 45.1412 183.095 45.1143 185.03 45.3407C186.248 45.5126 187.388 46.0376 188.31 46.8507C189.144 47.6068 189.724 48.6022 189.97 49.7007C190.226 50.8785 190.133 52.1055 189.7 53.2307C189.171 54.5627 188.251 55.703 187.06 56.5007C185.306 57.6473 183.341 58.4326 181.28 58.8107C177.714 59.624 175.047 59.694 173.28 59.0207C171.559 58.3333 170.176 56.9974 169.43 55.3007Z" fill="#263238"/>
<path d="M193.85 30.5703H202.06V36.8703L200.55 49.5403H195.47L193.85 36.8903V30.5703ZM194.25 51.4503H201.91V58.2303H194.25V51.4503Z" fill="#263238"/>
<path d="M128.68 116.58H128.5C124 114.83 121.31 113.13 119.91 111.08C118.814 111.288 117.68 111.133 116.68 110.64C115.508 110.066 114.536 109.153 113.89 108.02C113.55 108.28 113.15 108.451 112.727 108.516C112.304 108.58 111.872 108.537 111.47 108.39C110.237 107.929 109.186 107.084 108.47 105.98C108.022 106.313 107.465 106.467 106.91 106.41C103.91 106.17 99.9099 100.25 99.6199 93.9499C99.6169 93.8169 99.665 93.6879 99.7543 93.5893C99.8436 93.4907 99.9673 93.4301 100.1 93.4199C100.166 93.4172 100.231 93.4275 100.293 93.4502C100.354 93.4729 100.411 93.5075 100.459 93.5521C100.508 93.5967 100.547 93.6503 100.574 93.71C100.602 93.7697 100.617 93.8342 100.62 93.8999C100.9 99.8999 104.73 105.23 107 105.41C107.165 105.428 107.332 105.414 107.492 105.368C107.651 105.321 107.8 105.244 107.93 105.14C107.148 103.714 106.657 102.147 106.485 100.53C106.313 98.9131 106.465 97.278 106.93 95.7199C107.79 92.7199 108.55 91.5399 109.47 91.7199C111.19 92.1499 110.96 98.7199 110.05 103.01C109.912 103.784 109.627 104.524 109.21 105.19C109.799 106.178 110.689 106.953 111.75 107.4C112.033 107.508 112.34 107.532 112.636 107.47C112.932 107.408 113.204 107.262 113.42 107.05C112.64 105.12 112.42 102.48 113.54 99.1199C114.94 94.6899 115.54 94.5699 115.85 94.4899C115.966 94.4654 116.088 94.4729 116.2 94.5116C116.313 94.5504 116.413 94.6189 116.49 94.7099C117.42 95.7599 116.31 102.64 115.15 106.04C115.014 106.449 114.826 106.839 114.59 107.2C115.126 108.281 116 109.159 117.08 109.7C117.788 110.044 118.575 110.193 119.36 110.13C119.27 109.94 119.19 109.75 119.11 109.55C118.32 107.4 118.71 104.93 120.3 101.97C121.35 100.02 122.21 99.0999 123.01 99.0999C123.222 99.1027 123.429 99.1664 123.607 99.2834C123.784 99.4004 123.924 99.5657 124.01 99.7599C124.88 101.37 124.25 106.68 122.53 109.32C122.127 109.925 121.567 110.409 120.91 110.72C122.25 112.48 124.8 114.03 128.91 115.61C128.972 115.632 129.028 115.666 129.076 115.711C129.124 115.755 129.163 115.809 129.19 115.869C129.217 115.928 129.232 115.993 129.234 116.058C129.235 116.124 129.224 116.189 129.2 116.25C129.161 116.354 129.089 116.443 128.995 116.502C128.901 116.562 128.791 116.589 128.68 116.58ZM123 100.11C123 100.11 122.43 100.11 121.17 102.46C119.72 105.14 119.35 107.35 120.04 109.21C120.124 109.44 120.224 109.664 120.34 109.88C120.882 109.656 121.342 109.272 121.66 108.78C123.06 106.64 123.73 102.24 123.21 100.52C123.14 100.17 123 100.11 123 100.11ZM115.82 95.8999C115.279 97.0384 114.83 98.2189 114.48 99.4299C113.713 101.529 113.581 103.807 114.1 105.98L114.19 105.72C115.24 102.55 115.8 99.2386 115.85 95.8999H115.82ZM109.24 92.7499C109.07 92.8999 108.58 93.5299 107.89 95.9699C107.074 98.7082 107.331 101.655 108.61 104.21C108.815 103.763 108.966 103.293 109.06 102.81C110.13 97.8999 109.83 93.4599 109.27 92.7499H109.24Z" fill="#263238"/>
<path d="M166.7 169C165.101 169.015 163.527 168.605 162.14 167.81C162.026 167.741 161.943 167.631 161.909 167.502C161.876 167.373 161.894 167.236 161.96 167.12C161.993 167.064 162.037 167.014 162.089 166.975C162.141 166.936 162.201 166.908 162.264 166.892C162.327 166.876 162.393 166.873 162.458 166.883C162.522 166.893 162.584 166.916 162.64 166.95C166.21 169.04 170.82 167.58 171.77 166.05C171.839 165.954 171.887 165.845 171.913 165.73C171.939 165.615 171.941 165.496 171.92 165.38C170.094 165.485 168.287 164.97 166.79 163.92C164.24 162.33 164.04 161.85 164.06 161.47C164.065 161.361 164.099 161.255 164.159 161.164C164.219 161.072 164.302 160.998 164.4 160.95C165.4 160.45 169.91 162.52 171.79 163.76C172.015 163.91 172.223 164.084 172.41 164.28C173.149 164.113 173.814 163.713 174.31 163.14C174.589 162.812 174.79 162.426 174.9 162.01H174.7C173.1 162.17 171.5 161.48 169.79 159.9C168.61 158.82 168.16 158.07 168.31 157.48C168.355 157.314 168.447 157.165 168.575 157.05C168.702 156.935 168.86 156.858 169.03 156.83C170.41 156.48 173.83 157.94 175.22 159.47C175.53 159.803 175.75 160.209 175.86 160.65C177.17 160.04 178.55 158.65 180.18 156.38C180.218 156.326 180.266 156.28 180.322 156.245C180.378 156.209 180.44 156.185 180.505 156.174C180.57 156.163 180.637 156.165 180.701 156.18C180.765 156.194 180.826 156.222 180.88 156.26C180.987 156.338 181.059 156.455 181.082 156.586C181.104 156.716 181.075 156.851 181 156.96C179.11 159.6 177.53 161.1 175.95 161.71C175.868 162.449 175.565 163.146 175.08 163.71C174.504 164.38 173.747 164.869 172.9 165.12C172.947 165.359 172.947 165.605 172.899 165.843C172.851 166.082 172.756 166.308 172.62 166.51C171.78 167.94 169.36 169 166.7 169ZM165.81 162.06C166.15 162.31 166.63 162.64 167.32 163.06C168.395 163.785 169.631 164.238 170.92 164.38C169.31 163.415 167.596 162.637 165.81 162.06ZM169.3 157.81C169.587 158.351 169.986 158.825 170.47 159.2C171.95 160.57 173.3 161.2 174.6 161.04H174.92C174.849 160.729 174.697 160.443 174.48 160.21C173.08 158.63 170 157.65 169.3 157.81Z" fill="#263238"/>
<path d="M179.94 167.629L164.36 170.459L150.21 93.2393L120.15 98.6992L71.1499 185.699L76.4099 214.409L139.26 202.999L143.56 226.479L173.62 220.999L169.32 197.519L184.9 194.689L179.94 167.629ZM101.09 181.999L127.09 136.429L134.34 175.969L101.09 181.999Z" fill="#005BFF"/>
<path d="M305.43 87.9997C304.957 83.1454 303.882 78.3687 302.23 73.7797C300.53 69.3838 298.17 65.2732 295.23 61.5897C291.75 57.3043 287.427 53.7783 282.53 51.2297C277.197 48.303 270.123 46.2664 261.31 45.1197C243.01 42.733 228.75 45.9797 218.53 54.8597C208.31 63.7397 201.577 80.7397 198.33 105.86C197.034 115.248 196.699 124.744 197.33 134.2C197.997 142.866 199.59 149.843 202.11 155.13C205.317 162.259 210.375 168.399 216.76 172.91C223.073 177.343 231.74 180.273 242.76 181.7C262.347 184.253 276.87 180.49 286.33 170.41C295.79 160.33 302.057 143.296 305.13 119.31C306.496 108.924 306.597 98.4101 305.43 87.9997Z" fill="#005BFF"/>
<path d="M251.77 171.43C249.36 171.35 246.77 171.13 244.16 170.79C235 169.6 227.92 167.28 223.1 163.9C218.293 160.506 214.492 155.876 212.1 150.5L212.05 150.39C210.13 146.39 208.87 140.64 208.32 133.39C207.737 124.681 208.046 115.936 209.24 107.29C212.81 79.5697 220.18 67.9997 225.73 63.1797C232.21 57.5597 240.96 55.0197 252.46 55.4197C254.82 55.4997 257.32 55.7097 259.89 56.0397C267.27 57.0397 273.12 58.6397 277.26 60.8997C280.837 62.742 284.004 65.2899 286.57 68.3897C288.815 71.1893 290.619 74.3154 291.92 77.6597C293.248 81.3888 294.108 85.2685 294.48 89.2097C295.546 98.7595 295.449 108.403 294.19 117.93C291.42 139.47 286.06 154.61 278.27 162.93C272.49 169.09 263.82 171.93 251.76 171.47L251.77 171.43Z" fill="#263238"/>
<path d="M271.34 88.2893L271.47 84.4993L269.14 83.7393C269.041 82.4575 268.833 81.1863 268.52 79.9393L270.52 78.4793L269.18 74.9193L266.74 75.1193C266.166 73.9752 265.497 72.8813 264.74 71.8493L266 69.7393L263.4 66.9693L261.22 68.0893C260.244 67.2507 259.201 66.4948 258.1 65.8293L258.45 63.4093L254.99 61.8393L253.41 63.6993C252.186 63.3028 250.932 63.0085 249.66 62.8193L249.07 60.4493L245.27 60.3193L244.52 62.6393C243.238 62.7419 241.968 62.9493 240.72 63.2593L239.25 61.2593L235.69 62.5893L235.89 65.0293C234.746 65.6036 233.652 66.2726 232.62 67.0293L230.52 65.7593L227.74 68.3493L228.86 70.5393C228.019 71.5141 227.266 72.5616 226.61 73.6693L224.19 73.2993L222.61 76.7593L224.48 78.3393C224.074 79.5636 223.779 80.8221 223.6 82.0993L221.22 82.6993L221.09 86.4793L223.42 87.2393C223.518 88.5247 223.725 89.7993 224.04 91.0493L222.04 92.4993L223.38 96.0593L225.82 95.8593C226.388 97.0067 227.057 98.101 227.82 99.1293L226.55 101.239L229.15 104.009L231.33 102.899C232.306 103.735 233.349 104.487 234.45 105.149L234.09 107.569L237.55 109.139L239.14 107.289C240.367 107.684 241.625 107.975 242.9 108.159L243.49 110.539L247.28 110.669L248.03 108.339C249.315 108.242 250.59 108.034 251.84 107.719L253.29 109.719L256.85 108.389L256.66 105.959C257.8 105.378 258.893 104.709 259.93 103.959L262.03 105.219L264.81 102.629L263.7 100.439C264.538 99.4679 265.287 98.4237 265.94 97.3193L268.36 97.6793L269.94 94.2193L268.08 92.6393C268.478 91.4168 268.769 90.1621 268.95 88.8893L271.34 88.2893ZM245.74 100.559C242.778 100.451 239.915 99.4679 237.511 97.7337C235.108 95.9996 233.272 93.5923 232.235 90.8156C231.198 88.039 231.008 85.0175 231.687 82.1325C232.366 79.2475 233.884 76.6283 236.051 74.6056C238.217 72.5829 240.934 71.2473 243.859 70.7673C246.783 70.2874 249.785 70.6846 252.484 71.9089C255.183 73.1332 257.459 75.1297 259.024 77.6463C260.59 80.163 261.375 83.087 261.28 86.0493C261.217 88.0239 260.764 89.9664 259.948 91.7655C259.132 93.5646 257.969 95.1848 256.525 96.5331C255.081 97.8813 253.385 98.931 251.534 99.622C249.683 100.313 247.714 100.631 245.74 100.559Z" fill="#005BFF"/>
<path opacity="0.3" d="M287.12 157.87L287.4 155.31L285.86 154.69C285.857 153.818 285.784 152.949 285.64 152.09L287.03 151.2L286.32 148.73H284.66C284.332 147.926 283.933 147.153 283.47 146.42L284.41 145.06L282.81 143.06L281.28 143.7C280.66 143.086 279.991 142.524 279.28 142.02L279.65 140.4L277.4 139.16L276.22 140.35C275.416 140.019 274.587 139.755 273.74 139.56L273.46 137.93L270.91 137.64L270.28 139.18C269.411 139.184 268.545 139.264 267.69 139.42L266.8 138L264.33 138.73V140.39C263.526 140.721 262.753 141.123 262.02 141.59L260.66 140.59L258.66 142.19L259.3 143.72C258.69 144.34 258.132 145.009 257.63 145.72L256.01 145.36L254.78 147.61L255.96 148.78C255.625 149.585 255.36 150.418 255.17 151.27L253.53 151.54L253.26 154.09L254.79 154.73C254.791 155.595 254.868 156.458 255.02 157.31L253.61 158.2L254.33 160.67H256C256.334 161.469 256.735 162.239 257.2 162.97L256.2 164.33L257.8 166.33L259.35 165.68C259.965 166.295 260.635 166.854 261.35 167.35L261 169L263.25 170.23L264.42 169.06C265.225 169.383 266.054 169.64 266.9 169.83L267.19 171.47L269.74 171.75L270.36 170.22C271.244 170.218 272.127 170.145 273 170L273.89 171.41L276.35 170.69V169.03C277.154 168.692 277.93 168.291 278.67 167.83L280.01 168.83L282.01 167.22L281.36 165.69C281.976 165.069 282.541 164.401 283.05 163.69L284.66 164.05L285.9 161.8L284.72 160.64C285.041 159.835 285.299 159.005 285.49 158.16L287.12 157.87ZM274.25 156.87C273.827 157.644 273.183 158.275 272.401 158.684C271.619 159.092 270.734 159.26 269.856 159.165C268.979 159.07 268.15 158.717 267.473 158.151C266.797 157.584 266.303 156.83 266.056 155.983C265.808 155.136 265.817 154.235 266.082 153.393C266.346 152.551 266.854 151.807 267.542 151.254C268.23 150.702 269.066 150.365 269.945 150.288C270.824 150.211 271.706 150.396 272.48 150.82C273.514 151.39 274.281 152.346 274.613 153.48C274.945 154.613 274.814 155.832 274.25 156.87Z" fill="#005BFF"/>
<path d="M301.29 114.65L298.29 112.59C297.995 111.519 297.593 110.48 297.09 109.49L297.85 106.49L293.53 101.86L290.53 102.42C289.578 101.853 288.573 101.381 287.53 101.01L285.68 97.8897L279.35 97.6797L277.29 100.68C276.218 100.97 275.179 101.373 274.19 101.88L271.19 101.11L266.56 105.44L267.12 108.44C266.545 109.387 266.073 110.393 265.71 111.44L262.6 113.29L262.38 119.62L265.38 121.68C265.671 122.758 266.073 123.804 266.58 124.8L265.82 127.8L270.14 132.43L273.14 131.88C274.092 132.445 275.097 132.918 276.14 133.29L277.98 136.4L284.32 136.62L286.37 133.62C287.451 133.326 288.5 132.924 289.5 132.42L292.5 133.18L297.13 128.86L296.58 125.86C297.148 124.909 297.621 123.904 297.99 122.86L301.1 121.01L301.29 114.65ZM281.56 124.27C280.152 124.221 278.791 123.757 277.648 122.935C276.504 122.113 275.63 120.97 275.136 119.651C274.642 118.332 274.551 116.896 274.873 115.526C275.195 114.155 275.916 112.91 276.946 111.949C277.975 110.988 279.267 110.354 280.656 110.127C282.046 109.9 283.472 110.09 284.754 110.674C286.036 111.257 287.116 112.208 287.857 113.405C288.599 114.602 288.969 115.992 288.92 117.4C288.852 119.286 288.039 121.068 286.66 122.356C285.28 123.644 283.446 124.332 281.56 124.27Z" fill="white"/>
<path d="M323 64.1194L323.52 62.8694C323.873 62.6701 324.208 62.4392 324.52 62.1794H325.68L327.04 60.1794L326.6 59.1094C326.768 58.753 326.902 58.3813 327 57.9994L328 57.0794L327.58 54.7294L326.32 54.2094C326.122 53.8548 325.891 53.5199 325.63 53.2094V52.0494L323.68 50.6894L322.6 51.1394C322.205 51.0003 321.796 50.9064 321.38 50.8594L320.46 49.8594L318.12 50.2794L317.59 51.5394C317.219 51.7318 316.867 51.9595 316.54 52.2194H315.39L314.03 54.2194L314.47 55.2894C314.336 55.6855 314.242 56.0943 314.19 56.5094L313.19 57.4394L313.61 59.7794L314.87 60.2994C315.061 60.6558 315.289 60.991 315.55 61.2994V62.4494L317.55 63.8094L318.62 63.3694C319.02 63.4994 319.432 63.5898 319.85 63.6394L320.77 64.6394L323 64.1194ZM318 57.6394C317.905 57.1176 317.968 56.5795 318.179 56.0932C318.39 55.6069 318.741 55.1942 319.187 54.9073C319.633 54.6205 320.154 54.4724 320.685 54.4819C321.215 54.4913 321.73 54.6578 322.166 54.9603C322.601 55.2627 322.937 55.6876 323.131 56.1812C323.325 56.6747 323.368 57.2147 323.255 57.7327C323.142 58.2508 322.878 58.7237 322.496 59.0916C322.114 59.4595 321.632 59.7058 321.11 59.7994C320.411 59.9219 319.693 59.7637 319.111 59.3592C318.528 58.9547 318.129 58.3366 318 57.6394Z" fill="#005BFF"/>
<path d="M295.61 57.4898L294.84 56.8398C296.49 54.7932 298.529 53.0938 300.84 51.8398L301.31 52.7198C299.112 53.9162 297.175 55.5377 295.61 57.4898Z" fill="#005BFF"/>
<path d="M303.59 51.7994L303.2 50.8794C306.893 49.2747 310.931 48.6281 314.94 48.9994L314.84 49.9994C310.998 49.6373 307.127 50.2567 303.59 51.7994Z" fill="#005BFF"/>
<path d="M301.7 58.7195L300.88 58.1595C303.289 54.9062 306.795 52.636 310.75 51.7695L310.94 52.7695C307.244 53.5766 303.964 55.6891 301.7 58.7195Z" fill="#005BFF"/>
<path d="M235.34 155C235.204 154.996 235.074 154.938 234.98 154.84L232.89 152.68C231.824 152.583 230.77 152.389 229.74 152.1L226.47 153.54C226.398 153.579 226.317 153.6 226.235 153.6C226.153 153.6 226.072 153.579 226 153.54L220.52 149.91C220.449 149.863 220.392 149.799 220.353 149.724C220.315 149.649 220.296 149.564 220.3 149.48V145.92C219.631 145.083 219.042 144.186 218.54 143.24L215.73 142.16C215.651 142.129 215.582 142.079 215.527 142.015C215.473 141.95 215.436 141.873 215.42 141.79L214.12 135.35C214.103 135.268 214.107 135.182 214.131 135.102C214.155 135.022 214.2 134.949 214.26 134.89L216.42 132.8C216.523 131.735 216.717 130.681 217 129.65L215.56 126.38C215.521 126.308 215.5 126.227 215.5 126.145C215.5 126.063 215.521 125.982 215.56 125.91L219.19 120.43C219.235 120.358 219.299 120.299 219.374 120.26C219.45 120.222 219.535 120.204 219.62 120.21L223.18 120.26C224.014 119.588 224.912 118.998 225.86 118.5L226.95 115.69C226.979 115.612 227.027 115.543 227.09 115.488C227.153 115.434 227.229 115.397 227.31 115.38L233.75 114.08C233.832 114.062 233.918 114.065 233.998 114.09C234.079 114.114 234.152 114.159 234.21 114.22L236.3 116.38C237.369 116.477 238.426 116.671 239.46 116.96L242.72 115.52C242.794 115.481 242.876 115.46 242.96 115.46C243.044 115.46 243.126 115.481 243.2 115.52L248.67 119.15C248.739 119.198 248.796 119.263 248.836 119.337C248.876 119.412 248.898 119.495 248.9 119.58L248.84 123.14C249.512 123.976 250.104 124.873 250.61 125.82L253.41 126.91C253.488 126.939 253.557 126.987 253.611 127.05C253.666 127.113 253.703 127.189 253.72 127.27L255.03 133.71C255.045 133.792 255.041 133.877 255.016 133.957C254.992 134.037 254.949 134.11 254.89 134.17L252.72 136.27C252.62 137.332 252.426 138.382 252.14 139.41L253.58 142.68C253.619 142.754 253.64 142.836 253.64 142.92C253.64 143.004 253.619 143.086 253.58 143.16L250 148.59C249.953 148.658 249.89 148.713 249.817 148.752C249.744 148.79 249.662 148.81 249.58 148.81L246.01 148.76C245.173 149.423 244.279 150.012 243.34 150.52L242.25 153.33C242.22 153.409 242.171 153.479 242.106 153.534C242.041 153.588 241.963 153.625 241.88 153.64L235.44 155H235.34ZM229.71 151C229.756 150.991 229.804 150.991 229.85 151C230.93 151.314 232.039 151.519 233.16 151.61C233.28 151.624 233.392 151.677 233.48 151.76L235.48 153.86L241.38 152.67L242.44 149.93C242.489 149.819 242.573 149.728 242.68 149.67C243.679 149.153 244.621 148.533 245.49 147.82C245.582 147.742 245.7 147.703 245.82 147.71L249.29 147.76L252.61 142.76L251.21 139.58C251.17 139.47 251.17 139.35 251.21 139.24C251.519 138.159 251.723 137.05 251.82 135.93C251.83 135.809 251.883 135.695 251.97 135.61L254.07 133.61L252.88 127.71L250.15 126.65C250.033 126.607 249.936 126.521 249.88 126.41C249.361 125.412 248.741 124.471 248.03 123.6C247.959 123.508 247.92 123.396 247.92 123.28V119.8L242.92 116.48L239.75 117.88C239.637 117.92 239.513 117.92 239.4 117.88C238.316 117.567 237.204 117.363 236.08 117.27C235.96 117.256 235.848 117.203 235.76 117.12L233.76 115.02L227.86 116.22L226.81 119C226.768 119.115 226.686 119.21 226.58 119.27C225.577 119.785 224.632 120.405 223.76 121.12C223.717 121.159 223.666 121.189 223.611 121.208C223.556 121.227 223.498 121.234 223.44 121.23L219.97 121.18L216.64 126.18L218.04 129.36C218.072 129.427 218.088 129.501 218.088 129.575C218.088 129.649 218.072 129.723 218.04 129.79C217.744 130.846 217.549 131.927 217.46 133.02C217.451 133.141 217.397 133.255 217.31 133.34L215.21 135.34L216.41 141.24L219.13 142.3C219.251 142.35 219.351 142.443 219.41 142.56C219.926 143.551 220.542 144.486 221.25 145.35C221.324 145.44 221.363 145.553 221.36 145.67V149.15L226.36 152.47L229.54 151.07C229.592 151.037 229.65 151.013 229.71 151ZM234.62 147.76C232.213 147.758 229.851 147.103 227.787 145.866C225.722 144.63 224.031 142.856 222.893 140.735C221.756 138.614 221.214 136.224 221.326 133.82C221.438 131.415 222.2 129.086 223.53 127.08C224.802 125.155 226.552 123.594 228.608 122.548C230.665 121.502 232.957 121.008 235.262 121.114C237.567 121.22 239.804 121.922 241.756 123.152C243.708 124.382 245.308 126.097 246.398 128.13C247.488 130.163 248.032 132.445 247.977 134.751C247.921 137.057 247.268 139.31 246.081 141.288C244.894 143.266 243.214 144.903 241.205 146.037C239.196 147.172 236.927 147.765 234.62 147.76ZM224.37 127.63C223.024 129.661 222.31 132.045 222.319 134.482C222.328 136.918 223.059 139.297 224.42 141.318C225.781 143.339 227.711 144.911 229.965 145.835C232.22 146.759 234.697 146.995 237.085 146.511C239.473 146.027 241.664 144.846 243.381 143.117C245.098 141.389 246.263 139.19 246.731 136.798C247.198 134.407 246.945 131.931 246.005 129.683C245.066 127.435 243.48 125.517 241.45 124.17C240.103 123.269 238.592 122.643 237.002 122.329C235.413 122.015 233.777 122.019 232.189 122.341C230.601 122.663 229.092 123.296 227.75 124.203C226.408 125.111 225.259 126.276 224.37 127.63Z" fill="white"/>
<path d="M425.83 176.65L410.13 174.53L420.51 96.7197L390.23 92.6396L316.78 160.26L312.92 189.19L376.21 197.73L373.05 221.4L403.33 225.48L406.49 201.82L422.19 203.94L425.83 176.65ZM346.41 165.93L385.17 130.6L379.85 170.44L346.41 165.93Z" fill="#005BFF"/>
<path d="M394.13 224.74H394C393.87 224.716 393.755 224.641 393.68 224.532C393.605 224.424 393.577 224.29 393.6 224.16L417 96.2199C417.027 96.0914 417.102 95.9781 417.21 95.9036C417.318 95.8291 417.45 95.7991 417.58 95.8199C417.71 95.8442 417.825 95.9188 417.899 96.0275C417.974 96.1361 418.003 96.27 417.98 96.3999L394.63 224.33C394.607 224.445 394.544 224.55 394.453 224.624C394.362 224.699 394.248 224.74 394.13 224.74Z" fill="#263238"/>
<path d="M414.83 98.3701C414.822 98.5875 414.728 98.793 414.568 98.9411C414.409 99.0893 414.197 99.168 413.98 99.1601C413.762 99.1521 413.557 99.0581 413.409 98.8987C413.261 98.7393 413.182 98.5276 413.19 98.3101C413.198 98.0926 413.292 97.8872 413.451 97.739C413.611 97.5909 413.822 97.5121 414.04 97.5201C414.257 97.528 414.463 97.6221 414.611 97.7815C414.759 97.9409 414.838 98.1526 414.83 98.3701Z" fill="#263238"/>
<path d="M411.5 115.67C411.494 115.832 411.44 115.988 411.345 116.12C411.25 116.251 411.118 116.351 410.966 116.408C410.814 116.464 410.649 116.475 410.491 116.437C410.333 116.4 410.19 116.316 410.08 116.198C409.969 116.079 409.897 115.93 409.871 115.77C409.845 115.61 409.867 115.446 409.935 115.298C410.002 115.151 410.112 115.027 410.25 114.942C410.388 114.856 410.548 114.814 410.71 114.82C410.818 114.824 410.924 114.849 411.022 114.894C411.12 114.938 411.208 115.002 411.281 115.081C411.355 115.16 411.412 115.253 411.449 115.354C411.487 115.455 411.504 115.562 411.5 115.67Z" fill="#263238"/>
<path d="M408.17 133C408.166 133.108 408.141 133.214 408.096 133.312C408.051 133.41 407.988 133.498 407.909 133.571C407.83 133.645 407.737 133.702 407.636 133.739C407.535 133.777 407.428 133.794 407.32 133.79C407.213 133.787 407.107 133.764 407.009 133.72C406.911 133.676 406.823 133.613 406.749 133.535C406.676 133.457 406.619 133.365 406.581 133.265C406.543 133.164 406.526 133.057 406.53 132.95C406.532 132.841 406.557 132.734 406.601 132.635C406.645 132.536 406.709 132.447 406.788 132.372C406.867 132.298 406.96 132.24 407.061 132.202C407.163 132.164 407.271 132.146 407.38 132.15C407.596 132.16 407.8 132.255 407.948 132.414C408.096 132.573 408.175 132.783 408.17 133Z" fill="#263238"/>
<path d="M401.61 150.999C401.588 151.2 401.492 151.385 401.342 151.52C401.191 151.654 400.997 151.729 400.795 151.729C400.593 151.729 400.398 151.654 400.248 151.52C400.098 151.385 400.002 151.2 399.98 150.999C399.967 150.885 399.979 150.769 400.014 150.659C400.049 150.549 400.107 150.448 400.184 150.362C400.261 150.276 400.355 150.207 400.46 150.16C400.566 150.113 400.68 150.089 400.795 150.089C400.91 150.089 401.024 150.113 401.129 150.16C401.235 150.207 401.329 150.276 401.406 150.362C401.483 150.448 401.541 150.549 401.576 150.659C401.611 150.769 401.623 150.885 401.61 150.999Z" fill="#263238"/>
<path d="M401.5 167.57C401.497 167.678 401.473 167.785 401.429 167.883C401.385 167.982 401.321 168.071 401.242 168.144C401.162 168.218 401.069 168.275 400.968 168.312C400.866 168.349 400.758 168.366 400.65 168.36C400.488 168.354 400.331 168.3 400.2 168.205C400.069 168.11 399.968 167.978 399.912 167.826C399.855 167.674 399.845 167.509 399.883 167.351C399.92 167.194 400.003 167.05 400.122 166.94C400.241 166.83 400.39 166.757 400.55 166.731C400.71 166.705 400.874 166.728 401.022 166.795C401.169 166.862 401.293 166.972 401.378 167.11C401.463 167.248 401.506 167.408 401.5 167.57Z" fill="#263238"/>
<path d="M398.17 184.87C398.166 185.032 398.114 185.19 398.02 185.323C397.926 185.455 397.795 185.557 397.643 185.615C397.491 185.673 397.325 185.685 397.167 185.649C397.008 185.612 396.864 185.53 396.753 185.411C396.641 185.293 396.568 185.144 396.541 184.983C396.515 184.823 396.536 184.658 396.604 184.51C396.671 184.362 396.78 184.238 396.919 184.152C397.057 184.066 397.217 184.024 397.38 184.03C397.596 184.038 397.8 184.13 397.948 184.288C398.095 184.445 398.175 184.654 398.17 184.87Z" fill="#263238"/>
<path d="M394.84 202.17C394.832 202.388 394.738 202.594 394.579 202.744C394.42 202.894 394.208 202.975 393.99 202.97C393.882 202.966 393.776 202.941 393.678 202.896C393.58 202.851 393.492 202.787 393.419 202.708C393.345 202.629 393.288 202.537 393.251 202.436C393.213 202.335 393.196 202.227 393.2 202.12C393.203 202.012 393.228 201.906 393.272 201.808C393.316 201.709 393.379 201.621 393.458 201.547C393.536 201.473 393.628 201.416 393.729 201.377C393.83 201.339 393.937 201.321 394.045 201.325C394.153 201.328 394.259 201.352 394.357 201.397C394.455 201.441 394.544 201.504 394.617 201.582C394.691 201.661 394.749 201.753 394.787 201.854C394.825 201.955 394.843 202.062 394.84 202.17Z" fill="#263238"/>
<path d="M391.5 219.479C391.494 219.641 391.44 219.798 391.345 219.929C391.25 220.061 391.118 220.161 390.966 220.218C390.814 220.274 390.649 220.284 390.491 220.247C390.333 220.209 390.19 220.126 390.08 220.007C389.969 219.888 389.897 219.74 389.871 219.58C389.845 219.419 389.867 219.255 389.935 219.108C390.002 218.96 390.112 218.836 390.25 218.751C390.388 218.666 390.548 218.624 390.71 218.629C390.818 218.632 390.925 218.656 391.023 218.701C391.122 218.745 391.211 218.809 391.284 218.888C391.358 218.967 391.415 219.06 391.452 219.162C391.489 219.263 391.505 219.371 391.5 219.479Z" fill="#263238"/>
<path d="M400.79 151.45C400.677 151.45 400.568 151.411 400.481 151.34C400.393 151.269 400.333 151.17 400.31 151.06C400.295 150.996 400.293 150.929 400.305 150.864C400.316 150.799 400.34 150.737 400.375 150.681C400.41 150.625 400.456 150.577 400.51 150.539C400.564 150.501 400.625 150.474 400.69 150.46L403.17 149.93C403.235 149.916 403.302 149.914 403.368 149.926C403.434 149.938 403.496 149.962 403.552 149.999C403.608 150.035 403.656 150.082 403.694 150.137C403.731 150.193 403.757 150.255 403.77 150.32C403.783 150.385 403.783 150.451 403.771 150.515C403.758 150.58 403.733 150.641 403.697 150.696C403.661 150.751 403.614 150.798 403.56 150.835C403.505 150.871 403.444 150.897 403.38 150.91L400.9 151.44L400.79 151.45Z" fill="#263238"/>
<path d="M409.08 142.239C407.9 145.299 406.899 148.424 406.08 151.599C405.33 155.129 405.29 163.029 405.29 163.029" fill="#263238"/>
<path d="M405.29 163.53C405.157 163.525 405.031 163.469 404.939 163.374C404.846 163.279 404.792 163.152 404.79 163.02C404.79 162.7 404.85 155.02 405.6 151.5C406.414 148.297 407.416 145.145 408.6 142.06C408.62 141.994 408.653 141.933 408.698 141.881C408.743 141.828 408.798 141.786 408.859 141.756C408.921 141.725 408.989 141.708 409.057 141.706C409.126 141.703 409.195 141.714 409.259 141.739C409.323 141.764 409.381 141.801 409.43 141.85C409.479 141.898 409.517 141.956 409.543 142.02C409.568 142.084 409.58 142.152 409.578 142.221C409.576 142.29 409.559 142.358 409.53 142.42C408.351 145.456 407.35 148.558 406.53 151.71C405.8 155.15 405.75 162.95 405.74 163.03C405.741 163.154 405.695 163.274 405.612 163.367C405.528 163.459 405.414 163.517 405.29 163.53Z" fill="#263238"/>
<path d="M222.45 249.84C223.84 227.44 221.29 186.71 263.4 192.11C308.53 197.88 295.62 250.66 295.62 250.66L222.45 249.84Z" fill="#263238"/>
<path d="M251.51 236.38C261.661 236.38 269.89 228.151 269.89 218C269.89 207.849 261.661 199.62 251.51 199.62C241.359 199.62 233.13 207.849 233.13 218C233.13 228.151 241.359 236.38 251.51 236.38Z" fill="white"/>
<path d="M253.93 199.65C245.22 198.17 235.93 204.58 235 211.08L269.51 214.26C268.29 206.85 260.83 200.83 253.93 199.65Z" fill="#263238"/>
<path d="M265.58 217.54C265.33 222.35 262.71 226.12 259.73 225.96C256.75 225.8 254.53 221.79 254.73 216.96C254.93 212.13 257.6 208.38 260.58 208.54C263.56 208.7 265.82 212.74 265.58 217.54Z" fill="#263238"/>
<path d="M251.51 237.38C247.677 237.38 243.93 236.244 240.743 234.114C237.556 231.985 235.072 228.958 233.605 225.417C232.139 221.875 231.755 217.979 232.503 214.219C233.25 210.46 235.096 207.007 237.806 204.296C240.517 201.586 243.97 199.74 247.729 198.993C251.489 198.245 255.385 198.629 258.927 200.095C262.468 201.562 265.495 204.046 267.624 207.233C269.754 210.42 270.89 214.167 270.89 218C270.885 223.138 268.841 228.065 265.208 231.698C261.575 235.331 256.648 237.375 251.51 237.38ZM251.51 200.63C248.072 200.63 244.712 201.65 241.853 203.56C238.995 205.47 236.767 208.185 235.452 211.361C234.137 214.538 233.793 218.033 234.465 221.404C235.136 224.776 236.793 227.873 239.224 230.303C241.656 232.733 244.754 234.388 248.126 235.057C251.498 235.727 254.993 235.381 258.168 234.064C261.344 232.747 264.057 230.518 265.966 227.659C267.874 224.799 268.892 221.438 268.89 218C268.885 213.393 267.052 208.977 263.793 205.72C260.535 202.463 256.117 200.633 251.51 200.63Z" fill="#005BFF"/>
<path opacity="0.3" d="M290.49 249.28H290.37C290.306 249.266 290.245 249.239 290.192 249.201C290.138 249.163 290.092 249.114 290.058 249.058C290.023 249.002 290 248.94 289.991 248.875C289.981 248.81 289.984 248.743 290 248.68C290 248.55 293.22 234.99 289.91 221.28C289.878 221.147 289.901 221.007 289.972 220.891C290.043 220.775 290.158 220.692 290.29 220.66C290.423 220.628 290.563 220.65 290.679 220.721C290.795 220.793 290.878 220.907 290.91 221.04C294.28 235.04 291.03 248.78 291 248.91C290.971 249.021 290.904 249.118 290.811 249.185C290.718 249.253 290.605 249.286 290.49 249.28Z" fill="white"/>
<path opacity="0.3" d="M287.7 213.759C287.604 213.758 287.51 213.731 287.429 213.679C287.348 213.628 287.283 213.556 287.24 213.469C285.997 210.722 284.404 208.148 282.5 205.809C282.417 205.707 282.378 205.576 282.391 205.445C282.404 205.314 282.469 205.193 282.57 205.109C282.621 205.067 282.68 205.035 282.744 205.015C282.807 204.996 282.874 204.989 282.94 204.996C283.006 205.002 283.07 205.022 283.129 205.053C283.187 205.085 283.239 205.128 283.28 205.179C285.231 207.585 286.868 210.23 288.15 213.049C288.179 213.108 288.195 213.172 288.198 213.238C288.202 213.303 288.192 213.369 288.17 213.43C288.147 213.492 288.113 213.548 288.068 213.596C288.024 213.644 287.97 213.683 287.91 213.709C287.844 213.74 287.773 213.757 287.7 213.759Z" fill="white"/>
<path d="M128.73 354.92H128.36C127.034 354.882 125.777 354.32 124.866 353.356C123.954 352.392 123.463 351.106 123.5 349.78C123.537 348.453 124.1 347.196 125.064 346.285C126.028 345.374 127.314 344.882 128.64 344.92H128.73C131.62 344.92 138.57 341.41 153.11 318.49C153.496 317.881 154.009 317.363 154.614 316.971C155.219 316.579 155.901 316.322 156.615 316.219C157.328 316.115 158.055 316.167 158.747 316.371C159.438 316.575 160.077 316.926 160.62 317.4C172.039 327.216 184.492 335.759 197.76 342.88C198.374 343.159 198.925 343.559 199.38 344.057C199.836 344.555 200.185 345.14 200.408 345.776C200.632 346.413 200.724 347.088 200.679 347.761C200.635 348.434 200.454 349.091 200.149 349.693C199.844 350.295 199.42 350.828 198.903 351.262C198.387 351.695 197.787 352.02 197.142 352.215C196.497 352.411 195.818 352.475 195.148 352.401C194.477 352.328 193.828 352.12 193.24 351.79C180.909 345.237 169.253 337.486 158.44 328.65C146.25 347 137.21 354.92 128.73 354.92Z" fill="#263238"/>
<path d="M159.67 316.5H159.24C158.454 316.386 157.746 315.966 157.27 315.33C156.793 314.695 156.589 313.896 156.7 313.11C157.41 308.11 156.53 289.48 150.22 274.98C149.94 274.339 149.893 273.621 150.087 272.949C150.28 272.277 150.702 271.694 151.28 271.3C164.98 261.97 194.16 260.85 195.4 260.81C195.794 260.797 196.187 260.862 196.556 261C196.925 261.139 197.263 261.349 197.551 261.618C197.839 261.888 198.071 262.211 198.234 262.57C198.396 262.929 198.487 263.316 198.5 263.71C198.513 264.104 198.449 264.497 198.31 264.866C198.171 265.235 197.961 265.573 197.692 265.861C197.423 266.149 197.1 266.381 196.741 266.544C196.382 266.707 195.994 266.797 195.6 266.81C195.33 266.81 169.82 267.81 156.72 275.01C162.3 289.45 163.57 307.44 162.64 313.95C162.532 314.66 162.173 315.308 161.628 315.776C161.083 316.244 160.389 316.501 159.67 316.5Z" fill="#263238"/>
<path d="M164.71 312.619C162.71 307.909 153.71 308.439 148.44 312.479C145.62 314.629 141.8 321.119 141.44 323.479C141.32 324.04 141.338 324.622 141.492 325.174C141.647 325.726 141.933 326.233 142.327 326.65C142.72 327.067 143.209 327.382 143.752 327.569C144.294 327.755 144.873 327.807 145.44 327.719C148.89 327.419 153.62 322.409 153.62 322.409C150.47 325.499 154.54 327.679 160.62 323.209C163.94 320.719 166.94 317.889 164.71 312.619Z" fill="#005BFF"/>
<path d="M336.71 251.16C336.664 251.17 336.616 251.17 336.57 251.16C336.506 251.142 336.447 251.113 336.395 251.072C336.343 251.031 336.3 250.98 336.268 250.922C336.236 250.864 336.217 250.8 336.21 250.735C336.204 250.669 336.21 250.603 336.23 250.54C337.56 245.9 339.01 243.07 340.92 241.54C340.621 240.464 340.677 239.321 341.08 238.28C341.546 237.064 342.369 236.019 343.44 235.28C343.149 234.965 342.942 234.582 342.839 234.166C342.736 233.749 342.74 233.314 342.85 232.9C343.212 231.647 343.961 230.541 344.99 229.74C344.619 229.325 344.416 228.786 344.42 228.23C344.42 225.23 349.93 220.71 356.18 219.85C356.313 219.831 356.447 219.866 356.554 219.947C356.661 220.027 356.732 220.147 356.75 220.28C356.769 220.412 356.734 220.547 356.653 220.654C356.573 220.761 356.453 220.831 356.32 220.85C350.38 221.66 345.4 225.96 345.42 228.23C345.418 228.568 345.547 228.894 345.78 229.14C347.125 228.227 348.639 227.592 350.232 227.271C351.825 226.95 353.467 226.95 355.06 227.27C358.13 227.86 359.38 228.51 359.24 229.44C358.96 231.19 352.43 231.56 348.05 231.04C347.266 230.968 346.502 230.748 345.8 230.39C344.857 231.061 344.156 232.018 343.8 233.12C343.714 233.411 343.715 233.721 343.802 234.012C343.889 234.303 344.059 234.563 344.29 234.76C346.15 233.76 348.76 233.4 352.21 234.16C356.74 235.16 356.91 235.71 357.02 236.04C357.055 236.156 357.058 236.28 357.028 236.398C356.998 236.516 356.937 236.624 356.85 236.71C355.9 237.71 348.95 237.24 345.46 236.38C345.039 236.284 344.632 236.132 344.25 235.93C343.217 236.557 342.422 237.511 341.99 238.64C341.701 239.37 341.622 240.166 341.76 240.94C341.938 240.833 342.122 240.736 342.31 240.65C344.38 239.65 346.88 239.83 349.97 241.15C351.97 242.02 352.97 242.8 353.07 243.59C353.075 243.792 353.024 243.992 352.923 244.168C352.823 244.345 352.677 244.49 352.5 244.59C350.97 245.59 345.63 245.45 342.85 243.97C342.211 243.622 341.678 243.107 341.31 242.48C339.68 243.98 338.36 246.65 337.16 250.84C337.124 250.931 337.062 251.009 336.982 251.066C336.902 251.123 336.808 251.155 336.71 251.16ZM342.13 241.83C342.409 242.347 342.833 242.771 343.35 243.05C345.61 244.25 350.05 244.52 351.71 243.85C352.05 243.71 352.1 243.6 352.1 243.6C352.1 243.6 352.05 243.04 349.6 241.99C346.8 240.79 344.6 240.62 342.77 241.47C342.549 241.576 342.336 241.696 342.13 241.83ZM345.47 235.26L345.72 235.33C348.977 236.08 352.328 236.333 355.66 236.08C354.478 235.641 353.26 235.307 352.02 235.08C349.866 234.496 347.589 234.559 345.47 235.26ZM346.73 229.64C347.192 229.805 347.672 229.913 348.16 229.96C353.16 230.55 357.55 229.86 358.16 229.23C357.99 229.08 357.32 228.65 354.84 228.18C352.049 227.623 349.152 228.145 346.73 229.64Z" fill="#263238"/>
<path d="M206.53 353.249C207.19 353.039 206.97 352.399 206.23 352.399H192.69C166.91 349.669 148.9 353.329 160.25 354.189C171.6 355.049 159.45 354.869 151.16 358.009C142.87 361.149 212.81 361.939 219.16 358.009C225 354.389 197.39 356.179 206.53 353.249Z" fill="#263238"/>
<path d="M303.47 357.24L185.67 353.33L180.78 239.11L319.89 242.22L303.47 357.24Z" fill="#005BFF"/>
<path d="M222.45 355.05C222.324 355.05 222.203 355.003 222.11 354.918C222.017 354.832 221.96 354.715 221.95 354.59L212.51 239.87C212.502 239.738 212.545 239.607 212.631 239.507C212.717 239.406 212.838 239.342 212.97 239.33C213.102 239.324 213.231 239.368 213.331 239.453C213.431 239.539 213.495 239.659 213.51 239.79L223 354.51C223.006 354.575 222.998 354.641 222.978 354.704C222.958 354.767 222.925 354.825 222.883 354.875C222.84 354.926 222.788 354.967 222.729 354.997C222.67 355.027 222.606 355.045 222.54 355.05H222.45Z" fill="#263238"/>
<path d="M303.47 357.24L335.13 352.42L345.1 246.21L319.89 242.22L303.47 357.24Z" fill="#005BFF"/>
<path opacity="0.2" d="M303.47 357.24L335.13 352.42L345.1 246.21L319.89 242.22L303.47 357.24Z" fill="black"/>
<path d="M195.73 331.32L192.83 263.45C192.759 261.774 193.032 260.1 193.633 258.533C194.234 256.966 195.15 255.539 196.324 254.341C197.499 253.142 198.906 252.197 200.461 251.564C202.015 250.931 203.682 250.623 205.36 250.66L293.42 252.66C295.154 252.699 296.86 253.106 298.426 253.852C299.991 254.599 301.38 255.669 302.502 256.992C303.624 258.315 304.452 259.861 304.933 261.527C305.413 263.194 305.535 264.943 305.29 266.66L295.53 335C295.108 337.993 293.596 340.725 291.283 342.672C288.971 344.619 286.021 345.644 283 345.55L207.61 343.05C204.515 342.955 201.571 341.693 199.368 339.517C197.164 337.342 195.865 334.414 195.73 331.32Z" fill="#263238"/>
<path d="M205.25 271.49L218.87 271.92L218.76 275.43L210.23 275.16L210.15 277.78L218.06 278.03L217.95 281.39L210.04 281.13L209.94 284.38L218.71 284.66L218.59 288.38L204.72 287.94L205.25 271.49Z" fill="white"/>
<path d="M221.4 288.47L221.92 272.02L230.4 272.29C231.616 272.283 232.826 272.459 233.99 272.81C234.815 273.086 235.521 273.636 235.99 274.37C236.338 274.903 236.572 275.503 236.677 276.132C236.783 276.76 236.758 277.403 236.604 278.021C236.45 278.64 236.171 279.22 235.783 279.725C235.395 280.231 234.907 280.651 234.35 280.96C233.782 281.252 233.171 281.455 232.54 281.56C233.005 281.709 233.446 281.925 233.85 282.2C234.142 282.47 234.403 282.772 234.63 283.1C234.888 283.411 235.115 283.746 235.31 284.1L237.62 288.95L231.88 288.76L229.32 283.65C229.117 283.162 228.818 282.719 228.44 282.35C228.081 282.09 227.653 281.944 227.21 281.93H226.76L226.55 288.6L221.4 288.47ZM226.82 278.85L228.96 278.92C229.414 278.892 229.866 278.828 230.31 278.73C230.645 278.679 230.948 278.504 231.16 278.24C231.376 277.973 231.499 277.643 231.51 277.3C231.529 277.071 231.497 276.841 231.415 276.626C231.334 276.412 231.206 276.218 231.04 276.06C230.482 275.699 229.823 275.527 229.16 275.57L226.92 275.5L226.82 278.85Z" fill="white"/>
<path d="M239.28 289L239.8 272.55L248.27 272.82C249.486 272.813 250.696 272.988 251.86 273.34C252.687 273.613 253.394 274.164 253.86 274.9C254.368 275.701 254.606 276.644 254.54 277.59C254.543 278.388 254.33 279.172 253.923 279.858C253.516 280.545 252.931 281.109 252.23 281.49C251.661 281.781 251.051 281.983 250.42 282.09C250.882 282.239 251.32 282.455 251.72 282.73C252.019 282.993 252.284 283.292 252.51 283.62C252.766 283.933 252.993 284.267 253.19 284.62L255.5 289.46L249.76 289.28L247.2 284.17C246.996 283.683 246.696 283.241 246.32 282.87C245.963 282.6 245.528 282.453 245.08 282.45H244.64L244.42 289.13L239.28 289ZM244.69 279.38L246.84 279.44C247.295 279.423 247.747 279.362 248.19 279.26C248.523 279.21 248.823 279.035 249.03 278.77C249.254 278.508 249.378 278.175 249.38 277.83C249.402 277.602 249.372 277.372 249.292 277.157C249.212 276.942 249.085 276.748 248.92 276.59C248.362 276.22 247.697 276.048 247.03 276.1L244.8 276.03L244.69 279.38Z" fill="white"/>
<path d="M256.32 281.36C256.243 280.212 256.421 279.061 256.841 277.99C257.262 276.919 257.914 275.955 258.752 275.166C259.589 274.377 260.591 273.784 261.685 273.428C262.78 273.073 263.939 272.964 265.08 273.11C266.232 273.072 267.379 273.265 268.455 273.679C269.53 274.093 270.511 274.719 271.34 275.52C272.08 276.371 272.639 277.365 272.982 278.439C273.326 279.514 273.448 280.647 273.34 281.77C273.348 283.403 272.964 285.015 272.22 286.47C271.546 287.66 270.538 288.626 269.32 289.25C267.885 289.936 266.297 290.239 264.71 290.13C263.128 290.143 261.563 289.801 260.13 289.13C258.91 288.468 257.915 287.459 257.27 286.23C256.514 284.724 256.185 283.039 256.32 281.36ZM261.4 281.54C261.25 282.8 261.536 284.074 262.21 285.15C262.525 285.502 262.908 285.787 263.336 285.987C263.764 286.188 264.228 286.301 264.7 286.318C265.172 286.336 265.643 286.259 266.085 286.091C266.526 285.922 266.929 285.667 267.27 285.34C268.011 284.217 268.363 282.882 268.27 281.54C268.404 280.334 268.111 279.12 267.44 278.11C267.137 277.76 266.762 277.48 266.341 277.289C265.92 277.097 265.463 276.999 265 277C264.533 276.966 264.065 277.039 263.63 277.212C263.196 277.385 262.806 277.654 262.49 278C261.733 279.02 261.348 280.27 261.4 281.54Z" fill="white"/>
<path d="M275.91 290.21L276.43 273.75L284.9 274.02C286.116 274.018 287.325 274.193 288.49 274.54C289.313 274.821 290.018 275.37 290.49 276.1C290.995 276.902 291.233 277.844 291.17 278.79C291.175 279.59 290.963 280.376 290.556 281.064C290.149 281.753 289.563 282.318 288.86 282.7C288.288 282.983 287.679 283.182 287.05 283.29C287.513 283.442 287.951 283.661 288.35 283.94C288.649 284.203 288.914 284.502 289.14 284.83C289.398 285.141 289.625 285.476 289.82 285.83L292.13 290.68L286.39 290.5L283.83 285.38C283.627 284.895 283.327 284.456 282.95 284.09C282.591 283.822 282.158 283.671 281.71 283.66H281.27L281.05 290.34L275.91 290.21ZM281.32 280.58L283.47 280.65C283.925 280.633 284.377 280.572 284.82 280.47C285.151 280.417 285.451 280.242 285.66 279.98C285.896 279.701 286.021 279.345 286.01 278.98C286.032 278.754 286.002 278.525 285.922 278.312C285.842 278.099 285.715 277.907 285.55 277.75C284.992 277.38 284.327 277.208 283.66 277.26L281.43 277.19L281.32 280.58Z" fill="white"/>
<path d="M284 318.16C283.812 318.164 283.626 318.127 283.454 318.053C283.281 317.979 283.127 317.869 283 317.73L274.44 308.36L265.2 316.8C264.944 317.035 264.605 317.158 264.259 317.143C263.912 317.128 263.585 316.976 263.35 316.72L254.79 307.35L245.55 315.79C245.294 316.025 244.955 316.148 244.609 316.133C244.262 316.118 243.935 315.966 243.7 315.71L235.13 306.34L225.9 314.78C225.766 314.902 225.607 314.995 225.435 315.054C225.263 315.112 225.081 315.135 224.9 315.12C224.553 315.1 224.227 314.946 223.99 314.69L215.43 305.33L206.2 313.76C205.942 313.995 205.602 314.119 205.254 314.104C204.905 314.089 204.577 313.937 204.34 313.68C204.223 313.553 204.133 313.405 204.074 313.243C204.016 313.081 203.99 312.909 203.998 312.736C204.006 312.564 204.049 312.395 204.123 312.24C204.197 312.084 204.302 311.945 204.43 311.83L214.63 302.5C214.888 302.265 215.228 302.142 215.577 302.156C215.925 302.171 216.254 302.324 216.49 302.58L225.05 311.95L234.28 303.51C234.542 303.28 234.882 303.159 235.23 303.17C235.578 303.189 235.905 303.343 236.14 303.6L244.7 312.97L253.94 304.53C254.066 304.413 254.214 304.322 254.376 304.262C254.538 304.203 254.71 304.176 254.882 304.183C255.054 304.191 255.223 304.232 255.379 304.306C255.535 304.379 255.675 304.482 255.79 304.61L264.35 313.98L273.59 305.54C273.846 305.306 274.185 305.182 274.532 305.197C274.879 305.212 275.205 305.364 275.44 305.62L285 316C285.171 316.191 285.283 316.428 285.321 316.681C285.36 316.934 285.324 317.193 285.218 317.427C285.112 317.66 284.94 317.857 284.724 317.995C284.508 318.132 284.256 318.203 284 318.2V318.16Z" fill="white"/>
<path d="M125.75 359.67L119.49 356.68L113.91 329.51L116.94 326.18L125.75 359.67Z" fill="#005BFF"/>
<path d="M125.75 359.67L134.06 354.81L126.94 332.43L116.94 326.18L125.75 359.67Z" fill="#005BFF"/>
<path opacity="0.2" d="M125.75 359.67L134.06 354.81L126.94 332.43L116.94 326.18L125.75 359.67Z" fill="black"/>
<path d="M262 364.61H261.31C259.984 364.574 258.727 364.013 257.814 363.05C256.902 362.087 256.409 360.801 256.445 359.475C256.481 358.149 257.042 356.891 258.005 355.979C258.968 355.067 260.254 354.574 261.58 354.61C269.28 354.86 285.58 350.13 294.9 341.09C295.463 340.538 296.148 340.127 296.9 339.89C312.69 335.15 318.56 344.72 318.8 345.13L310.2 350.22C310.23 350.284 310.267 350.344 310.31 350.4C310.22 350.27 307.98 347.4 300.86 349.16C289.17 359.82 271.23 364.61 262 364.61Z" fill="#263238"/>
<path d="M261.39 371.25L243.18 370.11L241.75 336.53L266.22 337.44L261.39 371.25Z" fill="#005BFF"/>
<path d="M261.39 371.25L265.65 367.01L268.29 346.08L266.22 337.44L261.39 371.25Z" fill="#005BFF"/>
<path opacity="0.2" d="M261.39 371.25L265.65 367.01L268.29 346.08L266.22 337.44L261.39 371.25Z" fill="black"/>
<path d="M366.91 358.54C366.257 358.539 365.621 358.325 365.1 357.93C354.7 350.03 340.65 336 335.26 322.47C335.179 322.274 335.122 322.069 335.09 321.86C332.46 306.22 329.95 273.31 329.84 271.92C329.811 271.526 329.859 271.13 329.982 270.755C330.106 270.379 330.302 270.032 330.56 269.733C331.08 269.128 331.82 268.755 332.615 268.695C333.411 268.635 334.198 268.894 334.802 269.415C335.407 269.935 335.781 270.674 335.84 271.47C335.84 271.8 338.41 305.03 340.97 320.54C346.35 333.7 360.97 347.21 368.75 353.15C369.251 353.53 369.62 354.058 369.805 354.659C369.989 355.26 369.98 355.904 369.779 356.5C369.578 357.095 369.195 357.613 368.684 357.979C368.172 358.345 367.559 358.541 366.93 358.54H366.91Z" fill="#263238"/>
<path d="M380.78 360.05C378.46 360.05 375.83 359 372.96 356.93C372.316 356.464 371.883 355.76 371.757 354.974C371.632 354.188 371.823 353.385 372.29 352.74C372.757 352.096 373.461 351.663 374.246 351.538C375.032 351.412 375.836 351.604 376.48 352.07C378.96 353.86 380.31 354.07 380.78 354.07C381.576 354.07 382.339 354.386 382.901 354.949C383.464 355.512 383.78 356.275 383.78 357.07C383.78 357.866 383.464 358.629 382.901 359.192C382.339 359.754 381.576 360.07 380.78 360.07V360.05Z" fill="#263238"/>
<path d="M373.8 356.84C377.01 347.31 390.17 349.19 394.71 350.61C398.588 351.735 402.308 353.348 405.78 355.41C408.23 357.01 408.27 359.7 405 361.23C401 363.11 390.84 361.44 390.84 361.44C396.08 363.73 390.84 367.44 381.63 363.8C378.64 362.62 372.67 360.34 373.8 356.84Z" fill="#005BFF"/>
<path d="M341.86 276C340.67 284.1 333.96 290.069 328.5 289.269C323.04 288.469 322.82 281.27 324.01 273.13C325.2 264.99 327.36 259.129 332.82 259.929C338.28 260.729 343.05 267.93 341.86 276Z" fill="#263238"/>
<path d="M209.88 243.7C210.333 243.7 210.7 243.332 210.7 242.88C210.7 242.427 210.333 242.06 209.88 242.06C209.427 242.06 209.06 242.427 209.06 242.88C209.06 243.332 209.427 243.7 209.88 243.7Z" fill="#263238"/>
<path d="M218.21 248.78C218.21 248.942 218.162 249.101 218.072 249.236C217.982 249.37 217.854 249.475 217.704 249.538C217.554 249.6 217.389 249.616 217.23 249.584C217.071 249.553 216.925 249.474 216.81 249.36C216.696 249.245 216.618 249.099 216.586 248.94C216.554 248.781 216.57 248.616 216.633 248.466C216.695 248.316 216.8 248.188 216.935 248.098C217.069 248.008 217.228 247.96 217.39 247.96C217.608 247.96 217.816 248.046 217.97 248.2C218.124 248.354 218.21 248.562 218.21 248.78Z" fill="#263238"/>
<path d="M219.13 345.68C219.13 345.843 219.082 346.001 218.992 346.136C218.902 346.271 218.774 346.376 218.624 346.438C218.474 346.5 218.309 346.516 218.15 346.485C217.991 346.453 217.845 346.375 217.73 346.26C217.616 346.146 217.538 345.999 217.506 345.84C217.474 345.681 217.49 345.516 217.553 345.367C217.615 345.217 217.72 345.089 217.855 344.999C217.989 344.908 218.148 344.86 218.31 344.86C218.528 344.86 218.736 344.947 218.89 345.101C219.044 345.254 219.13 345.463 219.13 345.68Z" fill="#263238"/>
<path d="M226.64 351.59C226.64 351.752 226.592 351.91 226.502 352.045C226.412 352.18 226.284 352.285 226.134 352.347C225.984 352.409 225.819 352.425 225.66 352.394C225.501 352.362 225.355 352.284 225.24 352.169C225.126 352.055 225.048 351.909 225.016 351.75C224.984 351.59 225 351.426 225.063 351.276C225.125 351.126 225.23 350.998 225.365 350.908C225.499 350.818 225.658 350.77 225.82 350.77C226.038 350.77 226.246 350.856 226.4 351.01C226.554 351.163 226.64 351.372 226.64 351.59Z" fill="#263238"/>
<path d="M82.51 361.42C81.0704 361.352 79.6643 360.963 78.3955 360.279C77.1268 359.595 76.0279 358.635 75.18 357.47C75.1385 357.416 75.1082 357.355 75.0912 357.289C75.0742 357.223 75.0707 357.155 75.081 357.088C75.0912 357.021 75.115 356.956 75.1509 356.899C75.1869 356.841 75.2341 356.792 75.2898 356.753C75.3455 356.714 75.4085 356.687 75.475 356.674C75.5415 356.66 75.61 356.66 75.6765 356.674C75.7429 356.687 75.8059 356.715 75.8615 356.753C75.9171 356.792 75.9642 356.842 76 356.9C77.87 359.6 82 361.03 83.8 360.18C83.9803 360.103 84.141 359.987 84.27 359.84C83.3605 359.439 82.5636 358.821 81.9497 358.04C81.3357 357.259 80.9237 356.338 80.75 355.36C80.52 354.09 80.34 352.36 81.38 352.14C82.82 351.82 84.7 355.29 85.38 357.92C85.5032 358.355 85.5472 358.809 85.51 359.26C86.0868 359.432 86.6935 359.479 87.29 359.4C87.5588 359.379 87.8204 359.303 88.058 359.175C88.2956 359.048 88.504 358.872 88.67 358.66C88.0119 358.163 87.466 357.533 87.0679 356.811C86.6699 356.089 86.4286 355.291 86.36 354.47C85.98 351.73 86.27 351.26 86.57 351.02C86.6672 350.945 86.7832 350.899 86.9051 350.887C87.027 350.874 87.1498 350.896 87.26 350.95C88.33 351.4 89.62 355.28 89.87 357.48C89.9 357.709 89.9 357.941 89.87 358.17C90.3011 358.335 90.7582 358.423 91.22 358.43C92.068 358.463 92.9067 358.243 93.63 357.8C93.49 357.71 93.36 357.61 93.23 357.51C92.23 356.62 91.77 355.2 91.95 353.18C92.09 351.61 92.44 350.75 93.07 350.48C93.2733 350.398 93.4958 350.377 93.7107 350.42C93.9255 350.463 94.1233 350.567 94.28 350.72C94.9551 351.465 95.4595 352.349 95.7583 353.309C96.0571 354.269 96.143 355.283 96.01 356.28C95.9232 356.695 95.7494 357.087 95.5 357.43C97.34 357.75 99.92 357.23 102.15 356.68C102.216 356.664 102.284 356.661 102.351 356.672C102.417 356.682 102.481 356.706 102.539 356.741C102.596 356.777 102.646 356.823 102.686 356.878C102.726 356.932 102.754 356.994 102.77 357.06C102.786 357.125 102.788 357.193 102.778 357.26C102.767 357.327 102.744 357.391 102.708 357.448C102.673 357.506 102.627 357.556 102.572 357.596C102.518 357.635 102.456 357.664 102.39 357.68C99.68 358.35 96.76 358.9 94.7 358.3C93.6945 359.064 92.4631 359.472 91.2 359.46C90.6395 359.452 90.0846 359.347 89.56 359.15C89.3274 359.509 89.0153 359.811 88.6477 360.031C88.2802 360.251 87.867 360.384 87.44 360.42C86.6883 360.516 85.9247 360.452 85.2 360.23C84.9667 360.623 84.6174 360.934 84.2 361.12C83.6637 361.336 83.0881 361.438 82.51 361.42ZM81.65 353.14C81.5117 353.82 81.5391 354.523 81.73 355.19C81.8711 355.989 82.2029 356.743 82.6973 357.387C83.1917 358.031 83.8341 358.547 84.57 358.89C84.556 358.653 84.5158 358.418 84.45 358.19C83.67 355.33 82.17 353.36 81.65 353.14ZM87.22 352.27C87.2265 352.96 87.2834 353.648 87.39 354.33C87.5003 355.549 88.0388 356.69 88.91 357.55C88.6639 355.703 88.0917 353.916 87.22 352.27ZM93.51 351.4C93.51 351.4 93.13 351.59 92.99 353.26C92.85 354.93 93.14 356.08 93.92 356.75C94.1046 356.899 94.306 357.027 94.52 357.13C94.783 356.848 94.969 356.504 95.06 356.13C95.2381 354.556 94.8129 352.973 93.87 351.7C93.66 351.44 93.54 351.4 93.51 351.4Z" fill="#263238"/>
<path d="M228.87 368.98L231.58 364.28L228.87 359.58H225.97L227.61 364.28L225.97 368.98H228.87Z" fill="#263238"/>
<path d="M226.16 366.73C225.826 366.751 225.491 366.704 225.176 366.591C224.86 366.478 224.572 366.301 224.327 366.072C224.083 365.843 223.888 365.566 223.755 365.259C223.622 364.951 223.554 364.62 223.554 364.285C223.554 363.95 223.622 363.619 223.755 363.311C223.888 363.004 224.083 362.727 224.327 362.498C224.572 362.269 224.86 362.092 225.176 361.979C225.491 361.866 225.826 361.819 226.16 361.84L221.56 360.92L220.33 364.64L222.39 367.78L226.16 366.73Z" fill="#263238"/>
<path d="M226.56 359.58H221.13L218.42 364.28L221.13 368.98H226.56L229.27 364.28L226.56 359.58ZM223.85 366.73C223.365 366.732 222.89 366.59 222.486 366.322C222.082 366.054 221.766 365.672 221.579 365.225C221.392 364.777 221.343 364.284 221.436 363.808C221.529 363.332 221.762 362.895 222.104 362.551C222.446 362.208 222.883 361.973 223.358 361.878C223.834 361.783 224.327 361.831 224.775 362.016C225.224 362.201 225.607 362.515 225.876 362.918C226.146 363.321 226.29 363.795 226.29 364.28C226.29 364.928 226.033 365.55 225.576 366.009C225.119 366.468 224.498 366.727 223.85 366.73Z" fill="#005BFF"/>
<path d="M417.89 359.259L415.88 355.769L417.89 352.279H420.04L418.83 355.769L420.04 359.259H417.89Z" fill="#005BFF"/>
<path d="M419.9 357.589C420.15 357.608 420.401 357.575 420.637 357.492C420.873 357.409 421.09 357.278 421.273 357.108C421.457 356.938 421.603 356.731 421.703 356.502C421.803 356.272 421.855 356.025 421.855 355.774C421.855 355.524 421.803 355.276 421.703 355.047C421.603 354.817 421.457 354.611 421.273 354.441C421.09 354.27 420.873 354.14 420.637 354.057C420.401 353.974 420.15 353.941 419.9 353.959L423.32 353.279L424.23 356.039L422.71 358.369L419.9 357.589Z" fill="#005BFF"/>
<path d="M419.61 352.279H423.61L425.61 355.769L423.61 359.259H419.61L417.61 355.769L419.61 352.279ZM421.61 357.589C421.97 357.591 422.323 357.486 422.624 357.287C422.924 357.089 423.159 356.805 423.299 356.473C423.438 356.14 423.475 355.774 423.406 355.42C423.337 355.067 423.165 354.741 422.91 354.486C422.656 354.23 422.332 354.056 421.979 353.985C421.625 353.914 421.259 353.949 420.926 354.087C420.593 354.224 420.308 354.458 420.107 354.757C419.907 355.057 419.8 355.409 419.8 355.769C419.799 356.009 419.845 356.246 419.936 356.467C420.027 356.689 420.161 356.89 420.33 357.059C420.499 357.228 420.701 357.362 420.922 357.453C421.143 357.544 421.381 357.591 421.62 357.589H421.61Z" fill="#263238"/>
<path d="M343 363.9H347.52C348.086 363.897 348.628 363.671 349.027 363.27C349.426 362.869 349.65 362.326 349.65 361.76C349.65 361.194 349.426 360.651 349.027 360.25C348.628 359.849 348.086 359.623 347.52 359.62H343C342.432 359.62 341.888 359.846 341.487 360.247C341.085 360.648 340.86 361.193 340.86 361.76C340.86 362.328 341.085 362.872 341.487 363.273C341.888 363.675 342.432 363.9 343 363.9Z" fill="#263238"/>
<path d="M335.73 359.86C336.149 359.097 336.783 358.474 337.553 358.067C338.322 357.659 339.194 357.486 340.061 357.569C340.927 357.651 341.751 357.986 342.43 358.531C343.109 359.076 343.614 359.807 343.882 360.636C344.15 361.464 344.169 362.353 343.938 363.192C343.707 364.031 343.236 364.785 342.582 365.359C341.928 365.934 341.12 366.305 340.258 366.426C339.396 366.547 338.517 366.412 337.73 366.04C336.649 365.482 335.831 364.52 335.457 363.362C335.082 362.204 335.18 360.946 335.73 359.86Z" fill="#005BFF"/>
<path d="M336.95 366.039L338.189 366.623L342.495 357.487L341.256 356.903L336.95 366.039Z" fill="#263238"/>
</svg>
