<svg width="96" height="16" viewBox="0 0 96 16" fill="none" xmlns="http://www.w3.org/2000/svg">
<path d="M15.4829 5.38024L10.6864 4.68315L8.54222 0.336271C8.48365 0.217256 8.38731 0.120911 8.26829 0.0623481C7.96981 -0.0850036 7.6071 0.0377895 7.45786 0.336271L5.3137 4.68315L0.517213 5.38024C0.384974 5.39913 0.26407 5.46147 0.171503 5.55592C0.0595945 5.67095 -0.0020722 5.82569 5.31712e-05 5.98616C0.00217854 6.14662 0.0679221 6.29968 0.182838 6.4117L3.65316 9.79512L2.83328 14.5727C2.81405 14.6839 2.82635 14.7982 2.86878 14.9027C2.91121 15.0072 2.98207 15.0977 3.07333 15.164C3.16459 15.2302 3.27259 15.2696 3.38509 15.2777C3.4976 15.2857 3.6101 15.262 3.70983 15.2094L8.00004 12.9537L12.2902 15.2094C12.4074 15.2717 12.5434 15.2925 12.6737 15.2698C13.0024 15.2131 13.2235 14.9014 13.1668 14.5727L12.3469 9.79512L15.8172 6.4117C15.9117 6.31913 15.974 6.19823 15.9929 6.06599C16.0439 5.73539 15.8135 5.42935 15.4829 5.38024Z" fill="#9BA5AF"/>
<path d="M35.4829 5.38024L30.6864 4.68315L28.5422 0.336271C28.4837 0.217256 28.3873 0.120911 28.2683 0.0623481C27.9698 -0.0850036 27.6071 0.0377895 27.4579 0.336271L25.3137 4.68315L20.5172 5.38024C20.385 5.39913 20.2641 5.46147 20.1715 5.55592C20.0596 5.67095 19.9979 5.82569 20.0001 5.98616C20.0022 6.14662 20.0679 6.29968 20.1828 6.4117L23.6532 9.79512L22.8333 14.5727C22.8141 14.6839 22.8264 14.7982 22.8688 14.9027C22.9112 15.0072 22.9821 15.0977 23.0733 15.164C23.1646 15.2302 23.2726 15.2696 23.3851 15.2777C23.4976 15.2857 23.6101 15.262 23.7098 15.2094L28 12.9537L32.2902 15.2094C32.4074 15.2717 32.5434 15.2925 32.6737 15.2698C33.0024 15.2131 33.2235 14.9014 33.1668 14.5727L32.3469 9.79512L35.8172 6.4117C35.9117 6.31913 35.974 6.19823 35.9929 6.06599C36.0439 5.73539 35.8135 5.42935 35.4829 5.38024Z" fill="#9BA5AF"/>
<path d="M55.4829 5.38024L50.6864 4.68315L48.5422 0.336271C48.4837 0.217256 48.3873 0.120911 48.2683 0.0623481C47.9698 -0.0850036 47.6071 0.0377895 47.4579 0.336271L45.3137 4.68315L40.5172 5.38024C40.385 5.39913 40.2641 5.46147 40.1715 5.55592C40.0596 5.67095 39.9979 5.82569 40.0001 5.98616C40.0022 6.14662 40.0679 6.29968 40.1828 6.4117L43.6532 9.79512L42.8333 14.5727C42.8141 14.6839 42.8264 14.7982 42.8688 14.9027C42.9112 15.0072 42.9821 15.0977 43.0733 15.164C43.1646 15.2302 43.2726 15.2696 43.3851 15.2777C43.4976 15.2857 43.6101 15.262 43.7098 15.2094L48 12.9537L52.2902 15.2094C52.4074 15.2717 52.5434 15.2925 52.6737 15.2698C53.0024 15.2131 53.2235 14.9014 53.1668 14.5727L52.3469 9.79512L55.8172 6.4117C55.9117 6.31913 55.974 6.19823 55.9929 6.06599C56.0439 5.73539 55.8135 5.42935 55.4829 5.38024Z" fill="#9BA5AF"/>
<path d="M75.4829 5.38024L70.6864 4.68315L68.5422 0.336271C68.4837 0.217256 68.3873 0.120911 68.2683 0.0623481C67.9698 -0.0850036 67.6071 0.0377895 67.4579 0.336271L65.3137 4.68315L60.5172 5.38024C60.385 5.39913 60.2641 5.46147 60.1715 5.55592C60.0596 5.67095 59.9979 5.82569 60.0001 5.98616C60.0022 6.14662 60.0679 6.29968 60.1828 6.4117L63.6532 9.79512L62.8333 14.5727C62.8141 14.6839 62.8264 14.7982 62.8688 14.9027C62.9112 15.0072 62.9821 15.0977 63.0733 15.164C63.1646 15.2302 63.2726 15.2696 63.3851 15.2777C63.4976 15.2857 63.6101 15.262 63.7098 15.2094L68 12.9537L72.2902 15.2094C72.4074 15.2717 72.5434 15.2925 72.6737 15.2698C73.0024 15.2131 73.2235 14.9014 73.1668 14.5727L72.3469 9.79512L75.8172 6.4117C75.9117 6.31913 75.974 6.19823 75.9929 6.06599C76.0439 5.73539 75.8135 5.42935 75.4829 5.38024Z" fill="#9BA5AF"/>
<path d="M95.4829 5.38024L90.6864 4.68315L88.5422 0.336271C88.4837 0.217256 88.3873 0.120911 88.2683 0.0623481C87.9698 -0.0850036 87.6071 0.0377895 87.4579 0.336271L85.3137 4.68315L80.5172 5.38024C80.385 5.39913 80.2641 5.46147 80.1715 5.55592C80.0596 5.67095 79.9979 5.82569 80.0001 5.98616C80.0022 6.14662 80.0679 6.29968 80.1828 6.4117L83.6532 9.79512L82.8333 14.5727C82.8141 14.6839 82.8264 14.7982 82.8688 14.9027C82.9112 15.0072 82.9821 15.0977 83.0733 15.164C83.1646 15.2302 83.2726 15.2696 83.3851 15.2777C83.4976 15.2857 83.6101 15.262 83.7098 15.2094L88 12.9537L92.2902 15.2094C92.4074 15.2717 92.5434 15.2925 92.6737 15.2698C93.0024 15.2131 93.2235 14.9014 93.1668 14.5727L92.3469 9.79512L95.8172 6.4117C95.9117 6.31913 95.974 6.19823 95.9929 6.06599C96.0439 5.73539 95.8135 5.42935 95.4829 5.38024Z" fill="#9BA5AF"/>
</svg>
