<svg width="24" height="24" viewBox="0 0 24 24" fill="none" xmlns="http://www.w3.org/2000/svg">
<g clip-path="url(#clip0_70_123)">
<path d="M12 0.000976562C5.49499 0.000976562 0.000366211 5.4956 0.000366211 12.0006C0.000366211 18.5056 5.49499 24.0002 12 24.0002C18.505 24.0002 23.9996 18.5056 23.9996 12.0006C23.9996 5.4956 18.505 0.000976562 12 0.000976562ZM12 6.00078C14.0723 6.00078 15.5999 7.52713 15.5999 9.60066C15.5999 11.6742 14.0723 13.2005 12 13.2005C9.92884 13.2005 8.40009 11.6742 8.40009 9.60066C8.40009 7.52713 9.92884 6.00078 12 6.00078ZM5.87298 17.7268C6.94934 16.1429 8.74448 15.0869 10.8 15.0869H13.1999C15.2567 15.0869 17.0506 16.1429 18.127 17.7268C16.5934 19.3683 14.4179 20.4003 12 20.4003C9.58206 20.4003 7.40653 19.3683 5.87298 17.7268Z" fill="#001A34"/>
</g>
<defs>
<clipPath id="clip0_70_123">
<rect width="24" height="24" fill="white"/>
</clipPath>
</defs>
</svg>
